<svg xmlns="http://www.w3.org/2000/svg" viewBox="0 0 7039.015 7038.965"><defs><style>.a{fill:#EDEDDF;}</style></defs><title>ZVF LOGO Neu</title><path class="a" d="M3533.493-1C1589.713-1,13.985,1574.732,13.985,3518.493S1589.713,7037.965,3533.493,7037.965C5477.254,7037.965,7053,5462.255,7053,3518.493S5477.254-1,3533.493-1ZM5232.155,1666.858v-.018c17.108-13.37,72.8-56.435,70.234-58.793l1.11-2.525,1.454.139,1.592,2.163c-6.373,24.417-26.737,42.252-45.958,58.2-28.779,23.967-53.853,51.587-80.972,77.284-36.26,34.323-73.664,70.411-121.045,88.938-50.98,19.882-91.016,59.967-141.858,81.53-19.6,8.309-38.581,17.661-57.835,26.545,3.149,4.068,6.511,8.157,10.111,12.157a74.332,74.332,0,0,0,27.258,14.753c32.071,9.887,67.4,5.557,95.137-13.3,6.859-4.66,14.789,3.912,9.834,10.458-32.588,43.015-108.226,71.223-160.906,62.478-26.148-4.33-53.509-17.768-79.448-10.146-5.923,1.784-11.256-.883-15.931-4.692-26.5-21.768-24.105-55.467-43.153-81.061-42.6-9.558-84.611-23.722-129.045-23.9-54.583-.227-113.079-4.259-166.655-13.335-55.587-9.437-110.17-21.456-165.86-30.51-6.026-.972-105.248-28.418-101.372-32.053l-.344-.156.067-1.422.66-.624c13.474-2.578,29.645,4.66,42.909,8.245,27.431,7.479,56.349,12.086,84.611,15.083,60.921,6.476,125.821,20.658,186.916,16.4,57.665-3.983,112.107-22.272,170.811-12.175,36.642,6.32,61.715,22.91,93.96,38.912,17.005-15.1,38.961-23.048,62.2-23.414,6.131-.085,14.753,1.213,23.69,3.635a178.667,178.667,0,0,1,25.523-14.008c9.04-10.476,20.711-19.548,32.485-27.205,6.65-10.873,14.41-21,25.042-29.247,24.9-19.168,72-30.858,101.925-37.2C5077.654,1749.267,5145.916,1690.233,5232.155,1666.858Zm-2225.02-398.891c129.219-11.81,243.471-27.949,370.853-.78,140.788,29.957,248.426,95.311,364.863,177.808,11.083,7.863,28.3,17.335,47.519,28.052,30.166-18.963,78.547-19.566,115.363-4.5,57.63-61.286,106.429-130.481,172.092-184.476,80.178-65.96,161.013-134.361,250.4-187.643,82.427-49.146,208.078-71.656,303.42-73.372,58.843-1.039,132.889-9.125,190.069-23.169,31.9-7.845,70.791-27.879,103.276-15.863l.312,1.177c-26.6,29.18-78.93,48.072-114.221,64.854-48.8,23.116-90.842,45.54-143.8,58.219-95.517,22.857-185.632,30.18-278.833,65.769-109.752,41.9-216.944,103.4-300.548,186.515-48.1,47.76-89.7,99.294-136.765,146.83,35.67,11.895,69.819,28.833,107.259,10.788a1281.326,1281.326,0,0,1,169.5-67.276c4.259-1.387,8.657,3.93,5.991,7.774a348.654,348.654,0,0,1-28.052,35.553c19.324-16.278,38.929-35.17,62.513-39.795a4.674,4.674,0,0,1,5.646,5.664c-3.429,17.332-13.508,32.173-27.535,44.866,9.04-3.082,18.08-6.181,27.223-8.8,6.061-1.717,9.767,5.749,5.887,10.061-64.73,71.968-148.093,123.5-236.027,164.038-74.912,34.5-156.576,48.4-237.722,24.765-38.822-11.256-78.167-31.656-96.073-63.552-5.3-1.23-10.561-2.685-16.069-3.67a76.033,76.033,0,0,1-15.239-5.142l-.9-.124c-9.317-.17-18.25-.727-26.563-5.316-4.224-2.319-4.156-7.6-1.387-10.976a59,59,0,0,1,14.789-12.59,11.713,11.713,0,0,1,7.274-7.706c5.4-2.1,10.873-3.688,16.381-5.281l4.678-2.408,9-3.586,1.557-7.221c4.607-16.778,18.321-35.067,34.979-44.675-26.769-17.821-53.335-35.915-80.313-52.594-54.615-33.851-101.961-66.911-163.885-89.112-45.579-16.4-91.5-21.68-137.773-35.1-113.111-32.918-233.013-15.6-349.138-29.507-99.223-11.9-192.838,8.033-289.118,28.8l-1.387-2.373C2768.547,1279.135,2931.323,1274.858,3007.135,1267.967Zm-1275.1,921.869c10.668-1.66,20.4-3.011,30.34-3.826l.415-.05,6.926-.5c70.791-17.661,140.369-70.564,195.956-115.068,34.84-27.95,80.7-48.59,111.656-78.238,72.663-69.631,218.469-107.692,313.985-119.086,155.367-18.545,267.371,84.625,383.255,168.006,42.806,30.826,82.462,74.72,119.484,112.4,16.452,16.8,34.7,34.5,52.818,52.9,18.182-6.717,37.507-10.214,55.1-9.749,16.693.468,35.532-3.238,54.548-6.093,36.919-74.688,92.818-144.975,142.447-204.339,83.778-100.124,153.217-157.6,287.039-166.169,19.569-1.248,38.894-1.28,58.187-.745,54.513.156,105.943-7.809,154.083,5.125,12.051-1.646,24.244-2.993,35.117,0,27.6,7.6,54.1,22.027,81.771,30.393,65.421,19.74,127.346,48.019,190.76,73.351,69.578,27.776,137.6,40.054,211.021,48.21,7.724-1.766,15.445-3.568,23.134-4.348l3.951-2.422,2.355,1.333c-3.362,14.111-13.785,25.612-23.655,35.514l-1.872,1.645c-29.194,45.941-146.117,58.843-191.175,63.8-136.56,14.959-263.491-12.452-396.032-38.965-51.913-10.356-109.1-30.251-159.417-47.636-77.926-27-122.948,17.005-183.071,60.208-54.134,38.894-92.747,89.388-135.142,139.173-3.046,3.586-5.954,7.412-8.866,11.207,17.527,3.7,33.872,11.636,44.611,23.584,76.469,85.165,149.267,82.186,256.111,75.309l9.214,3.621,1.628-.521c7.448.677,15.239,2.27,21.126,7.033l.277,1.887,5.022,8.192-1.972,4.83-4.99,2.614L3476.1,2326c-21.055,18.236-50.562,32.329-73.9,47.76-54.236,35.791-90.119,65.787-156.544,75.135-128.006,17.991-303.942,46.739-420.379-29.89-24.038-15.792-50.636-28.882-41.525-60.556,2.11-7.394,10.423-16.087,17.906-17.973a146.318,146.318,0,0,0,20.016-6.494c9.281-8.036,19.013-17.473,30.684-21.577,12.193-14.285,19.4-32.815,31.762-56.385l3.912-5.919a234.379,234.379,0,0,0-24.244-24.158c-52.505-44.433-104.039-92.835-167.279-122.012-73.77-34.113-145.805-45.526-212.716,9.246-39.206,32.071-71.035,82.029-121.218,98.567-106.947,35.188-238.173,59.258-351.042,57.144-15.69-.276-30.965-.709-46.1-1.227-28.921,6.217-58.116,7.721-86.757.1-11.051-2.944-21.821-6.632-32.486-10.423a86.018,86.018,0,0,1-30.375-10.756c-5.508-1.9-10.98-3.756-16.59-5.437-14.129-4.206-25.974-13.955-37.887-22.424-10.391-4.5-20.747-9.526-31.17-14.459C1724.284,2201.475,1725.39,2190.875,1732.04,2189.836ZM1565,3598.53l-5.642,31.276-5.682,31.134-22.2,24.935-3.149,3.117-4.019,1.075c-.7.692-2.841,3.256-6.372,7.756-3.533,4.469-5.682,7.033-6.338,7.724a81.089,81.089,0,0,1-6.408,8.763c-3.532,4.469-7.2,9.107-11.083,13.852-3.809,4.813-7.515,9.246-11.012,13.37-3.5,4.086-5.887,6.82-7.274,8.171a44.971,44.971,0,0,0-4.259,6.65c-2.181,3.742-3.568,6.27-4.33,7.621-2.007,2.043-6.235,7.306-12.537,15.792-6.234,8.451-13.232,17.594-20.85,27.325-7.618,9.8-14.512,18.839-20.711,27.223q-9.352,12.57-12.466,16.555c-.7,1.348-3.741,5.16-9.214,11.5s-8.519,9.834-9.178,10.494l-1.075,1.972-1.039,2.011-.032,1a47.859,47.859,0,0,0-4.124,5.958q-3.118,4.984-4.153,6.962l-2.011,1-1,1.972c-.727,1.351-3.117,4.99-7.238,10.912-4.086,5.954-6.823,9.593-8.139,10.873-2.77,4.642-5.16,8.589-7.238,11.881-2.7,3.947-4.433,6.579-5.125,7.894l-2.01,2.944c-1.383,1.975-4.3,6.235-8.693,12.781s-9,13.576-13.75,21.055q-7.118,11.272-13.679,20.988c-4.4,6.511-6.962,10.738-7.621,12.643l-1.971,1.94-1.04,1.972-.071.972c-1.316,1.316-3.947,5.16-7.965,11.636-4.054,6.44-6.721,10.32-8.036,11.6l-2.976,2.912c-1.387,3.22-2.738,6.128-4.089,8.692l-3.046,6.717-2.011,2.912-96.208,132.818-.557,2.841-.482,1.869-.972,1.9a172.563,172.563,0,0,0-11.083,14.441c-4.224,5.891-8.692,11.952-13.473,18.151-4.812,6.2-9.246,12.015-13.437,17.594-4.121,5.54-7.479,10.147-10.008,13.853-1.248.589-2.841,2.734-4.781,6.476-1.94,3.671-3.5,5.2-4.71,4.536,0,1.248-1.94,4.018-5.677,8.277-3.813,4.295-6.306,7-7.551,8.242-1.315,2.426-3.532,5.958-6.685,10.529-3.153,4.607-6.614,9.281-10.427,14.165-3.738,4.883-7.2,9.284-10.32,13.2-3.149,3.947-5.3,6.2-6.511,6.823,1.177.036,3.464.206,6.787.624,3.362.344,7,.759,10.98,1.142,3.947.415,7.585.8,10.979,1.177a77.225,77.225,0,0,0,7.756.656l23.793.592c1.213,0,4.295.241,9.179.656,4.918.45,7.621.968,8.241,1.592l4.642-1.731,3.742-1.766c1.833.036,4.915.1,9.21.209,4.263.1,8.728.206,13.37.309,4.571.106,8.728.036,12.469-.17,3.671-.245,6.476-.348,8.309-.28q4.575.107,18.91.936c9.561.521,19.743.936,30.581,1.178s20.885.66,30.2,1.177,15.481.833,18.6.9l3.742.071,4.639,1.071,254.419-2.493,1.731,3.844,3.532,4.816,3.082,5.228,2.114,5.266-.348,5.642a54.267,54.267,0,0,1-1.94,8.9,66.562,66.562,0,0,0-1.869,8.937l-.8,14.062-1.039,1.383-1,1.387-2.007.9-.762,14.959.692,3.741,1.735,3.844-.139,2.77-2.149,3.706-2.979,2.7-1.49.9-1.49.9-2.007,1.8c-1.248-.036-5.508-.45-12.746-1.284s-11.5-1.245-12.746-1.28c-3.185-.071-11.98-.174-26.492-.241q-21.768-.16-46.721.067c-16.657.174-32.141.348-46.547.553s-23.413-.032-27.12-.759a135.809,135.809,0,0,1-13.955-1.316c-6.2-.8-10.53-1.8-12.952-3.117l-413.974-6.93-34.876-3.671c.035-2.422.209-5.61.553-9.487.348-3.951.521-6.511.557-7.689.553-.624,1.454-2.6,2.7-5.855,1.248-3.291,2.149-5.575,2.773-6.752L1054.16,4179.4l1.49-3.256,1.422-3.288c.035-.66,1.281-2.667,3.809-6.1s5.231-7,8.068-10.771c2.841-3.741,5.717-7.621,8.59-11.707a67.009,67.009,0,0,1,7.135-8.9l.968-1.9,1.908-2.805,3.841-5.2c1.873-2.805,3.812-5.99,5.752-9.42a72.393,72.393,0,0,1,5.816-9l3.809-4.745c.624-.589,3.014-3.256,7.206-8q6.235-7.118,6.231-9.04l3.88-5.227c1.94-2.841,4.054-6.2,6.306-10.012,2.284-3.809,4.433-7.306,6.37-10.494,1.975-3.185,3.256-5.4,3.951-6.682l4.295-5.3,4.362-4.295c.66-1.248,2.77-4.433,6.373-9.593,3.532-5.128,5.4-8.313,5.4-9.629l1.94-2.39,1.94-2.39,3.015-5.82,2.458-4.813,3.394-3.844,1.975-1.94,1-1.94c.692-1.94,2.979-5.472,6.891-10.632,3.951-5.16,6.547-8.38,7.862-9.7l1.454-.486.557-3.394a53.372,53.372,0,0,0,4.433-6.823c2.355-3.876,4.639-8.1,7.029-12.675a132.224,132.224,0,0,1,7.029-12.189c2.287-3.568,3.465-5.717,3.536-6.373l3.426-4.4,3.465-4.4c1.352-1.972,3.153-4.571,5.472-7.862,2.319-3.256,4.675-6.543,7-9.835s4.5-6.408,6.508-9.352l4.018-6.4c.66-1.316,2.078-4.469,4.156-9.388,2.043-4.951,3.707-7.412,5.022-7.444a38.575,38.575,0,0,0,4.018-5.923,100.892,100.892,0,0,1,7.065-9.905q4-4.99,7.064-9.455l3.05-5.472c1.316-.66,3.671-4.156,7.132-10.462,3.394-6.338,5.472-10.146,6.167-11.5l2.007-2.007c2.011-3.327,5.125-8.66,9.249-16.037,4.121-7.341,8.621-15.065,13.4-23.134q7.272-12.1,13.5-22.719a170.145,170.145,0,0,1,9.285-14.721q2.075-3.011,10.838-15.757c5.855-8.451,12.434-17.353,19.637-26.531q10.809-13.868,20.193-26.215,9.352-12.363,11.462-15.48c.692-1.351,2.7-4.954,5.887-10.806s5.508-9.838,6.926-11.881c-1.348,0-4.291-.138-8.866-.45-4.639-.312-7.547-.45-8.866-.415a40.573,40.573,0,0,0-9.313-1.49c-3.99-.259-6.377-.426-7.21-.447-6.819.075-15.779.315-26.733.794-11.15.45-22.442.691-33.837.794q-17.14.16-32.276.312c-10.115.071-17.421.138-21.96.174-1.316.035-4.709-.277-10.182-.9s-8.9-.968-10.182-.933c-1.316,0-5.231.727-11.707,2.181-6.543,1.419-13.679,2.631-21.47,3.738-7.76,1.11-14.927,2.185-21.406,3.256-6.44,1.075-10.043,1.6-10.664,1.628l-3.844-.482-4.816-.486-.968.518,3.809,1.007,3.88.968-.972.521-3.876.032c-1.319.035-3.879.035-7.724.071-3.844.067-7.9.067-12.054.1-4.188.035-7.859.071-11.083.1-3.22,0-5.16.035-5.784.035-2.561.035-7.2-.241-13.888-.9-6.682-.589-10.7-.9-11.948-.9-3.876.035-10.458.28-19.7.7s-19.017.83-29.2,1.245c-10.182.486-19.878.865-29.091,1.284-9.214.451-16.034,1-20.5,1.7l-4.295,2.043-5.263,2.043-2.841.035-4.71-1.972-5.681.032-5.228.071-9.008.067c-3.149.035-7.238.035-12.292.106l-8.036-39.277a83.625,83.625,0,0,1,1.11-14.2,67.553,67.553,0,0,0,1.106-13.2c-1.248,0-1.525-3.188-.83-9.664.727-6.44,1.106-10.32,1.106-11.707l4.781-3.114,3.88-4.125.067-6.128,2.426-1.557,3.323-1.6,66.982-3.983,251.646-7.582,234.051,5.192,6.511.418,6.511.451c.692-.731,2.908-1.248,6.65-1.663,3.671-.383,6.2-.624,7.55-.66l2.979,1.039,3.011-.035,5.022-.067,1.94,2.078,1.387,2.078,1.383,2.078,1.975,1,.936,1.039Zm687.232,141.408-.521,13.438.174,8.072.209,6.267q-.415,10.756-1.837,38.965-1.452,28.157-2.564,59.5c-.727,20.917-1.49,40.763-2.146,59.57s-1.142,32.071-1.419,39.827c-.624,1.213-1.177,3.568-1.6,7.135s-.621,6.27-.692,8.036c-.071,1.209-.138,3.773-.277,7.618-.138,3.915-.277,8.21-.486,12.987-.138,4.781-.312,9.281-.486,13.438-.138,4.192-.241,6.894-.277,8.072s-.482,5.366-1.315,12.5-1.628,12.225-2.284,15.168l-1.975,4.852-1,4.915q-.935.883-.833,10.288c.071,6.267-.206,10.043-.83,11.186l-1.039,3.568-1.94,5.3c-.032,1.248-.277,3.742-.692,7.618-.45,3.88-1.039,8.036-1.766,12.5s-1.387,8.831-1.8,12.608c-.415,3.809-.936,5.954-1.557,6.543,0,1.177-.7,3.777-1.975,7.827s-1.976,6.65-1.976,7.827l-.589,4.366-1.142,7.444-1.525,7.412-1.039,4.33q-1.037,5.245-3.564,15.69-2.548,10.443-4.607,21.367c-1.454,7.274-2.805,13.821-4.156,19.6s-2.355,9.561-2.979,11.327a56.48,56.48,0,0,1-1.975,6.511c-1.316,3.738-2.734,7.792-4.327,12.122-1.627,4.362-3.081,8.831-4.366,13.473-1.351,4.639-2.355,8.139-3.011,10.458l-2.287,3.429-2.319,4.295-.554,3.947-.557,3.046-.9,1.731-1.8.833c-.624,1.142-1.734,3.429-3.327,6.891-1.525,3.465-3.291,7.2-5.16,11.256-1.9,4.018-3.773,7.76-5.646,11.221-1.833,3.465-3.082,5.472-3.671,6.025l-3.741,6.894-5.99,9.04-5.994,8.586-4.571,5.543-1.7-.9-1.766.8-3.706,5.125-5.437,5.99-.486,1.316-.486,1.248-.9,1.731-4.086,2.529-2.287,3.429-1.316.83-1.383.865-65.563,47.934c-.621.521-4.188,1.869-10.632,3.983-6.543,2.149-13.92,4.433-22.2,6.788-8.246,2.355-16.385,4.745-24.35,7.1-7.965,2.39-13.437,3.809-16.346,4.33-1.248.518-5.022,1.142-11.5,1.8a112.645,112.645,0,0,1-14.062.9c-1.177-.071-4.366-.28-9.629-.763s-8.763-.727-10.494-.762l-15.792-.521-72.972-23.375-3.465-1.422-4.295-2.355c-1.731-1.213-4.433-3.22-8.171-5.958-3.706-2.77-7.274-5.5-10.668-8.242-3.465-2.734-6.444-5.16-9-7.306l-4.71-3.22a79.03,79.03,0,0,0-8.522-7.274q-6.027-4.575-12.434-10.079c-4.259-3.635-8.416-6.962-12.4-10.044a80.366,80.366,0,0,1-8.553-7.274l-4.607-7.167c-1.936-2.979-3.912-6.132-5.816-9.423-1.975-3.256-3.777-6.267-5.437-8.934l-3.326-5.82-38.373-88.938-.313-4.433-1.141-4.433-.834-3.082-.762-3.082a25.049,25.049,0,0,0-1.522-6.649c-1.11-3.256-1.6-5.472-1.525-6.65-.624-.589-1.525-3.982-2.769-10.182-1.249-6.167-2.182-9.838-2.7-11.015-.553-1.8-1.213-4.433-1.975-8-.759-3.532-1.66-7.341-2.7-11.462s-1.94-7.965-2.7-11.5a34.184,34.184,0,0,1-1.075-7.065,74.945,74.945,0,0,0-.968-11.015c-.727-4.951-1.454-10.111-2.149-15.377-.692-5.3-1.316-10.008-1.731-14.129a64.328,64.328,0,0,1-.624-8.8c.071-1.766.036-5.816-.032-12.292-.106-6.408-.312-13.437-.66-21.059s-.692-15.065-1.039-22.406-.45-12.746-.348-16.278c.035-1.142-.138-5.231-.482-12.26-.348-7.065-.7-15.1-.972-24.176q-.468-13.608-.9-27.219c-.277-9.075-.344-16.278-.174-21.545.106-2.908-.032-8.76-.309-17.523q-.521-13.193-.45-27.673,0-14.491-.45-27.638c-.277-8.8-.419-14.651-.277-17.559,0-1.177.1-3.809.206-7.93.138-4.054.138-8.589,0-13.576-.138-4.954-.415-9.526-.865-13.647a75.627,75.627,0,0,1-.624-7.9l.313-8.76,2.354-74.5q.106-3.532,0-13.611c-.1-6.721-.138-13.888-.206-21.506-.071-7.586-.28-14.927-.624-21.96-.348-7.065-.486-11.707-.415-14.062l1.834-2.561,5.266.138,1.316.482,1.28.486,1.766.071,1.628,2.667,3.533-.312,2.631-.347,7.933.241,6.128-.691,4.433-1.592c.589.589,2.77.83,6.582.656s8.171-.206,13.161-.032,10.076.312,15.343.482a103.825,103.825,0,0,1,13.99,1.319l.1,25.453-5.472,170.049c0,.624-.1,3.844-.277,9.664-.206,5.852-.415,12.71-.691,20.608-.241,7.859-.486,16.069-.763,24.552q-.415,12.677-.656,20.573l-.245,7.9-.206,5.263q-.213,7.017.621,23.275.782,16.257,1.49,35.153c.45,12.6.972,24.449,1.49,35.567q.83,16.73,1.454,22.857a89.676,89.676,0,0,0,.557,10.115c.451,4.4.727,9.107.9,14.062.106,4.986.418,9.7.833,14.094a77.754,77.754,0,0,1,.589,9.214q1.56,7.118,3.844,18.112,2.234,11.07,4.121,21.648c1.213,7.029,2.319,12.952,3.359,17.629,1.039,4.745,1.56,6.823,1.592,6.235l1.6,4.4,3.256,8,2.805,8.448,2.043,4.018c1.106,2.979,2.7,7.515,4.848,13.75q3.218,9.3,6.823,19.534c2.422,6.788,4.536,12.849,6.476,18.183,1.837,5.334,3.047,8.9,3.6,10.668-.071.553,1.316,2.493,4.188,5.816,2.805,3.327,4.781,5.266,5.923,5.891l.833,1.8,1.7,1.837,2.564,2.667c.518,1.177,2.181,3.429,5.022,6.752,2.84,3.291,5.954,6.788,9.348,10.391,3.4,3.635,6.511,6.926,9.352,9.941l5.093,4.571c2.252,1.8,5.575,4.433,9.87,7.756q6.336,5.038,13.714,10.115,7.272,5.038,13.714,9.21a55.147,55.147,0,0,0,9.075,5.093l5.2,1.94a81.74,81.74,0,0,0,10.458,1.628c4.086.415,7.9,1,11.359,1.7a52.437,52.437,0,0,1,7.827,2.011c1.142.624,3.809.415,7.93-.624s7.033-.968,8.763.277l10.529.348,12.26.379,12.26.383,40.763-11.845,1.731.9,1.766-.8c7.827-7.377,14.03-13.161,18.566-17.42,4.5-4.224,10.668-10.044,18.562-17.385l47.969-73.944.933-2.149.138-3.947.071-1.766,15.931-32.8.209-6.164.067-1.766.071-1.731a177.4,177.4,0,0,1,4.607-20.92q3.426-13.039,6.994-26.978c2.355-9.249,4.678-18.289,7-26.982a189.618,189.618,0,0,1,6.44-20.431c.624-1.146,1.316-4.018,2.043-8.451a80.179,80.179,0,0,0,1.248-10.288l5.125-20.467c.138-3.568.138-8.072.071-13.437-.138-5.369-.209-11.047-.277-17.041-.071-5.958-.209-11.671-.277-17.041a65,65,0,0,1,.9-13.4c.106-2.39.624-8.969,1.628-19.708.936-10.7,1.8-22.648,2.6-35.773q1.144-19.641,2.216-38.479,1.144-18.752,1.49-28.641c.035-1.177.035-5.2,0-12.086-.035-6.859-.035-10.912,0-12.09,0-.589.1-3.011.241-7.167.174-4.192.415-8.519.9-12.987.45-4.469.763-8.763.9-12.987.174-4.156.241-6.824.277-8.036l.415-11.636c.071-1.213.486-4.919,1.316-11.189.763-6.231,1.248-9.937,1.248-11.15.067-.589-.414-4.192-1.387-10.806a103.419,103.419,0,0,1-1.12-16.393c-.167-.8-.416-2.073-.749-3.832a158.112,158.112,0,0,1-2.355-20.225q-.83-12.57-1.248-26.911c-.206-9.558.348-17.317,1.734-23.275l8.76.28c4.678-.486,12.158-.419,22.41.138,10.182.621,17.661.968,22.371,1.071.557.035,2.426.245,5.681.624l6.547.624,1.7.968,1.8.035,4.362-.762c3.532.106,5.579.45,6.167,1.039.518,1.213.794,5.266.865,12.157.035,6.859.589,10.909,1.766,12.122-.071,1.8-.071,4.812.1,8.969.138,4.192.241,8.692.383,13.473s.415,9.107.865,13.023A63.213,63.213,0,0,1,2252.233,3739.937ZM1843.178,2799.28c-158.792-46.962-313.882-101.234-473.125-147.121-17.179-4.937-296.948-119.781-284.376-129.08l-.9-.553.66-4.121,2.078-1.56c1.941-.138,3.876-.206,5.887-.206,2.77,0,5.54.138,8.345.38l.245-.174c1.94-.138,3.912-.206,5.887-.206,38.685,0,80.87,24.9,116.4,39.291,77.4,31.428,160.112,55.016,241.638,73.663,175.383,40.192,359.632,104.315,539.309,113.338,18.356.936,36.642,1.351,54.931,1.44,33.7-.156,67.255-1.316,100.712-2.493,35.879-1.248,71.692-2.5,107.468-2.5,2.39,0,4.777,0,7.167.018,2.426-.018,4.884-.018,7.309-.018,74.912,0,149.65,5.49,224.976,27.967,101.787,30.375,168.215,85.267,253.068,141.581,44.781-28.868,96.765-43.345,150.724-43.345,2.422,0,4.813.035,7.239.089,2.39-.053,4.812-.089,7.238-.089a308.13,308.13,0,0,1,31.826,1.663c15.9,1.713,37.369,7.309,59.708,15.742a541.661,541.661,0,0,1,72.833-28.712c30.2-27.4,67.329-49.8,104.386-68.039,23.272-29.368,49.388-56.176,83.4-76.451,79.309-47.242,220.82-64.766,310.315-72.819,264.218-23.651,484.1-171.9,743.783-209.876l.071-.088c27.18-16.413,84.952-51.029,135.228-82.576-18.1-11.9-36.846-22.6-56.958-29.2-42.114-13.852-82.047-31.829-122.4-50.2-97.179-44.228-192.7-39.206-294.451-25.3-33.975,4.639-81.423,16.987-112.455,32.606-24.556,12.331-29.68,47.551-56.938,45.838l-2.529-6.15c22.651-24.24,23.275-55.24,56.247-71.933,34.149-17.317,65.836-36.986,101.961-50.147,92.818-33.943,187.635-34.765,285.162-18.121,101.578,17.385,165.45,88.1,250.477,137.8,1.038.608,2.07,1.229,3.1,1.848,24.873-16.612,41.072-28.825,38.977-31.269a4.265,4.265,0,0,1,3.22-7.1,5.405,5.405,0,0,1,1.008.1l4.049.865,3.947,6.926c-.759,1.89-1.521,3.742-2.319,5.6,3.671-3.273,5.369-5.49,4.607-6.391a4.245,4.245,0,0,1,3.184-7.1,6.01,6.01,0,0,1,1.039.1l4.018.865,3.947,6.926a205.67,205.67,0,0,1-31.478,53.366c32.227,23.585,62.372,50.545,94.165,74.14a305.843,305.843,0,0,1,28.191,23.6,122.48,122.48,0,0,1,21.889-3.621c22.651-10.891,49.25-10.579,70.135,1.922a168.027,168.027,0,0,0,16.38-11.827c38.649-32.709,69.89-72.277,110.689-104.071,80.763-63.017,158.827-156.04,265.671-168.925,49.977-6.007,98.357-7.568,148.334-10.667,64.106-3.947,127.417-21.055,192.388-25.542,88.073-6.061,187.366-18.686,274.538-.606,3.256.66,3.256,5.784,0,6.458-78.962,16.381-159.97,28.833-240.01,39.362-118.721,15.533-233.633,42.979-352.393,59.222-21.853,3-43.082,3.585-63.691,13.335-27.255,12.884-43.948,38.011-69.163,53.161-19.878,11.93-36.052,32.124-55.2,45.994-26.876,19.48-52.644,38.546-78.86,58.963-25.144,19.534-57.491,61.386-92.75,96.609a172.7,172.7,0,0,1,17.594,17.527c35.95,41.508,72.521,53.2,125.928,60.105v3.376c-22.478,2.89-42.186,4.174-61.51.968a144.709,144.709,0,0,0,28.954,19.048l-1.87,4.4c-23.552-4.557-42.6-5.44-61.545-16.8,14.133,12.367,30.929,21.871,47.381,30.563l-1.248,3.085c-17.523-3.6-35.152-.606-51.431-9.82a113.04,113.04,0,0,1-27.669-22.339l-.486,1.351c13.438,16.537,26.978,29.368,49.455,39.844l-.727,2.685c-27.325-.518-43.742-4.242-58.531-17.732-8.139,17.126-19.6,32.627-38.131,38.617-35.015,11.292-65.181,6.181-97.979-9.593-30.1-14.409-46.476-34.894-55.654-58.91-18.322-5.266-34.774-17.005-47.31-34.131-5.125-1.369-10.32-2.7-15.445-4.227-7.1-2.06-11.916-6.423-17.527-10.008l-8.866-2.373-.624-2.426c9.111-7.706,21.438-10.615,31.932-16.069l2.738-1.507c2.561-19.463,12.572-39.915,27.187-49.611-27.637-22.2-54.374-46.271-82.636-64.106-4.241-2.679-8.473-5.474-12.707-8.338-25.68,21.993-54.507,41.159-82.5,59.248-92.47,59.779-175.174,131.556-263.317,197.013-117.856,87.381-239.559,179.5-384.361,216.926-155.608,40.174-286.553,143.071-442.3,188.111-60.056,17.385-118.8,37.958-177.982,57.126,7.757,13.04,16.175,26.152,25.18,39,19.186,20.8,42.667,38.6,74.39,52.64a338.838,338.838,0,0,0,129.982,29.23,314.51,314.51,0,0,0,137.733-34.667,21.926,21.926,0,0,1,10.115-2.578,19.66,19.66,0,0,1,7.135,1.348,20.956,20.956,0,0,1,7.341-1.348c16.97,0,28.886,21.938,14.824,36.518-84.643,87.658-240.286,140.854-376.222,140.854-2.39,0-4.816-.018-7.206-.05q-3.687.048-7.27.05c-40.972,0-80.107-4.83-115.019-14.994-63.655-18.6-127.8-56.835-193.807-59.52a161.014,161.014,0,0,0-19.81,2.064,39.54,39.54,0,0,1-6.721.571,38.17,38.17,0,0,1-7.2-.677c-.174.036-.383.071-.553.106a39.274,39.274,0,0,1-6.721.571c-14.962,0-27.464-8.71-38.234-19.864-69.649-72.766-50.807-170.223-97.389-251.561-120.942-42.788-238.556-98.861-368.154-114.948C2165.512,2876.823,1996.258,2844.564,1843.178,2799.28Zm988.572,1848.729-.374,1.858-.35,1.131-.221,6.611c-.935,1.008-2.068,3.777-3.367,8.449-1.3,4.633-1.94,7.177-1.955,7.628l-.4,10.036-.182,5.433-.806,4.373-1.547,5.8,1.732-.009.966,2.215-.218,6.508-.8,4.306-3.941,2.813-3.9.6-4.931,1.361-4.249.653a68.193,68.193,0,0,0-9.4-1.667c-4.417-.563-9.106-1.238-14-2.062-4.928-.857-9.441-1.633-13.64-2.433a68.269,68.269,0,0,0-8.45-1.252c-2.39-.044-8.137-.2-17.346-.372-9.211-.241-18.9-.566-29.075-1.08-10.238-.517-19.928-.944-28.93-1.175-9.031-.3-14.813-.464-17.167-.543l-1.456-.081-1.419-.016-4.682.155-8.253.071-8.663.057-5.029.108c-.953-.483-3.515.471-8.029-.34-4.544-.88-7.273-1.11-8.259-.692-1.453-.049-5.2.138-11.244.525-6.044.422-12.451.381-19.271,1.157-6.784.812-13.279.247-19.321.6-6.005.356-.4-.326-1.855-.442l-5.4,1.863c-1.051.313-1.055,8.7-2.286,24.805a317.98,317.98,0,0,0-.169,40.191c.843,12.018-8.432,67.5-7.071,78.666,1.36,11.1,2.415,21.013,3.369,29.707.957,8.729,1.566,15.336,1.9,19.921.328,4.62-.205,6.125-1.54,4.558l1.629,5.182,9.487,8.819,2.149.064,2.873.205c37.476.294,66.36,1.36,103.693,1.307l4.715.547,4.639.55c2.426.167,8.626.02,18.668-.271s20.813-.583,32.243-.876q17.139-.338,32.172-1.259c10.007-.567,16.171-.853,18.6-.718l1.387.792,1.454.069a83.349,83.349,0,0,1,10.666-1.09c5.2-.249,8.795-.392,10.664-.327l3.957,3.874,2.566,4.568-.34,2.979-.342,3.671-.343,2.979-.3,2.909.005,3.741-1.38,4.712-1.412,4.747c-.483,1.976-.273,5.058.428,9.281.768,4.191,1.6,8.658,2.58,13.366a94.383,94.383,0,0,1,1.89,12.949c.247,3.947-.579,6.583-2.482,7.933q-2.08-.045-7.484-.717c-3.6-.41-7.413-.855-11.5-1.335q-6.027-.667-11.432-1.644a68.094,68.094,0,0,0-7.517-1.1c-.933-.066-3.6.214-7.893.671-4.294.524-9.074.914-14.3,1.091-5.263.252-10.181.465-14.681.716-4.571.283-7.308.354-8.242.324l-3.224-.552-3.983-.512q-78.13,0-156.612-.469l-4.71.145-4.425-3.683-2.26,3.388-1.526,4.143-.894,4.959-.229,7.895c-.205,45.424-2.288,68.291-2.824,109.094l.129,5.479c.145,2.847.317,5.972.652,9.45s.578,6.566.694,9.377l.161,5.481c-.19,3.666-.312,7.3-.469,10.935l.117,5.827c.073,3.015.169,6.311.218,10.021.124,3.609.178,7.074.315,10.3.066,3.228.134,5.309.071,6.138l-.165,3.876c-.043,1.28.2,4.269.7,9.068.535,4.8,1.053,9.978,1.521,15.607.437,5.6,1.1,10.781,1.833,15.621a62.022,62.022,0,0,1,1.049,9.045l-.141,3.253-.143,3.217-1.216,3.149-1.9,3.056-.968,5.06-.934,5.1c-2.349-.221-6.433-.322-12.117-.338-5.789.016-9.882.191-12.28.387-.979.312-3.224.062-6.762-.886-3.575-.915-5.783-1.2-6.764-.816l-2.9-.236-2.144-.175-2.1-1.422-2.792-1.516-.69-.055-1.419-.119-2.231,1.451-2.21.827-3.559-.329-1.451-.116-2.769-2.172-2.025-2.7,1.323-5.4.708-8.638-.053-7.73-.93-3.289q.027-16.294.079-32.273l-.833-.082.128-3.807.715.951q.019-5.9.041-11.761l2.56.8c.03-.9.013-3.463-.051-7.8-.063-4.264-.082-6.865.018-7.728-.863,4.384-1.692,8.743-2.52,13.122.365-97.5,1.167-189.353.374-300.707.176-5.263.046-13.862-.315-25.861-.358-11.97-.657-24.765-1-38.467-.271-13.625-5.043-79.108-5.085-90.23-.015-10.987.287-18.946.971-23.809l.566-5.559-.125-5.586.917-4.575-.123-5.653c-.109-2.882-.281-6.109-.332-9.681-.126-3.539-.087-6.724.009-9.6l.22-5.606c.478-.814.974-3.122,1.376-6.849s.823-6.037,1.371-6.817l-.523-5.042-.5-5.7-.7-.68.043-1.28.082-1.385.412-.955.38-.96.044-1.315,1.474-.575,1.119-.239,1.114-.2,2.579-1.439,2.094-.448,1.166.348c.95-.383,3.851-.148,8.676.638,4.792.785,7.717,1.4,8.634,1.918,50.313,1.167,100.76.359,150.55-1.507a92.472,92.472,0,0,0,10.288,2.183,80.443,80.443,0,0,0,10.31,1.421c2.843-.011,9.623.322,20.246.781s21.937,1.047,33.937,1.69c11.937.645,23.178,1.192,33.633,1.577,10.45.421,16.813.84,19.118,1.3l3.443.7,3.5-.021q1.352-.008,8.333-.448c4.584-.3,7.352-.2,8.237.276l1.385-.025.72-.739,3.391,2.157,2.7,2.241,1.72.334.978,1.835Zm65.146-333.262a220.76,220.76,0,0,1-29.854,47.934q-17.87,21.869-44.817,46.512c-1.869,2.181-5.125,4.678-9.7,7.377-4.571,2.773-9,5.472-13.264,8.21-4.259,2.7-8.348,5.227-12.3,7.55-3.915,2.391-6.235,3.912-6.823,4.639a97.963,97.963,0,0,1-11.81,7.032q-8.884,4.777-18.771,9.629c-6.649,3.22-12.952,6.128-18.91,8.621s-10.32,4.192-12.952,5.057l-9.214.692c-.656.727-2.979,1.766-6.961,3.082a44.44,44.44,0,0,1-8.069,2.149l-49.04,3.635a188.231,188.231,0,0,1-20.02-.032c-9.281-.312-14.615-.833-16.069-1.387-2.011.174-5.646-.415-10.877-1.766q-7.894-1.974-16.207-3.915c-5.61-1.28-10.668-2.631-15.239-4.015-4.571-1.351-7.862-2.323-9.937-2.841-1.422-.589-4.263-2.078-8.558-4.469q-6.442-3.687-14.441-7.689-8.055-4-15.481-8.1c-5.057-2.7-8.59-4.642-10.735-5.855l-5.472-4.224c-2.912-2.181-6.167-4.5-9.734-6.962-3.636-2.493-7.065-4.986-10.353-7.479-3.256-2.493-5.611-4.366-7.068-5.646-1.383.1-3.564-1.592-6.579-5.16-2.979-3.532-5.263-6.27-6.752-8.21l-5.022-5.263-6.1-6.234c-.833-1.316-2.908-4.571-6.373-9.8s-5.611-8.487-6.372-9.8l-3.462-4.883-4.469-4.781-8.21-13.781-2.284-2.912c-.7.071-2.011-1.9-4.018-5.887-2.007-3.947-3.742-6.2-5.16-6.788l-2.181-1.9c-.106-1.351-1.387-4.848-3.88-10.494-2.458-5.646-4.086-9.107-4.883-10.423-.035-.7-1.386-2.635-4.018-5.855-2.667-3.256-3.983-5.2-4.05-5.887q-1.25-2.963-3.742-8.937c-1.663-3.983-3.359-8.345-5.057-12.987q-2.6-7.011-5.089-12.987c-1.7-3.983-2.565-6.65-2.667-8.033-.833-1.975-2.287-5.82-4.433-11.466-2.149-5.678-4.156-11.672-5.958-18.044-1.869-6.373-3.671-12.4-5.472-18.112-1.8-5.646-3.117-9.526-3.947-11.5l-.833-4.571-1.107-7.621a44.6,44.6,0,0,1-1.766-10.146l-1.422-5.543-2.493-5.437c-.035-.692-.589-3.22-1.592-7.618a77,77,0,0,1-1.663-8.59l-1.107-.972-.138-2.043-1.248-2.979c-.206-2.7-.692-6.752-1.419-12.225-.763-5.4-1.525-11.185-2.323-17.282q-1.245-9.192-2.319-17.282-1.144-8.155-1.351-11.221l-2.7-9.04-3.327-43.916c-.174-2.734-.138-6.993.1-12.849q.367-8.724.174-18.527c-.138-6.479-.1-12.469.21-17.977.205-5.5.312-9.281.138-11.324a98.833,98.833,0,0,1,.624-12.363q.883-9.3,2.111-20.193c.8-7.274,1.7-14.165,2.6-20.743.83-6.582,1.521-11.569,1.94-15.033l1.556-6.3,1.592-6.27a32.38,32.38,0,0,0,1.525-7.306c.379-3.465.589-5.508.553-6.2l.763-3.67.763-3.639.518-6.717,1.6-6.788a39.564,39.564,0,0,1,.794-9.317,47.871,47.871,0,0,1,1.94-8.349c.66-.727,1.7-2.873,3.153-6.4a28.043,28.043,0,0,1,4.049-7.518c-.1-1.348.521-4.777,1.8-10.388,1.28-5.579,1.9-8.692,1.837-9.387l2.805-4.295,2.11-5.816,2.217-4.816.763-3.118.348-2.631.415-1.557,3.153-5.855c1.419-3.22,2.458-5.5,3.046-6.926l1.351-3.185,1.178-4.192a76.2,76.2,0,0,1,5.057-8.59c2.77-4.327,5.61-8.969,8.728-13.991l13.679-22.616c.589-1.419,1.8-3.741,3.6-6.962,1.833-3.185,2.666-5.472,2.6-6.855.589-.731,2.426-3.429,5.543-8.107a116.268,116.268,0,0,1,7.412-10.32l3.323-4.362,3.394-2.287,2.078-.174,2.007-.138,2.841-3.809,1.734-3.742c1.869-2.181,5.749-5.713,11.565-10.6,5.784-4.883,11.916-10.111,18.321-15.757,6.408-5.575,12.572-10.841,18.356-15.725a116.417,116.417,0,0,1,12.643-9.7q2.9-2.234,9.763-6.859c4.539-3.082,8.937-5.99,13.232-8.692,4.224-2.7,8.175-5.263,11.774-7.586,3.532-2.32,5.681-3.5,6.374-3.564l86.409-25.942c.66-.035,3.082-.38,7.135-1.039,4.054-.624,7.448-1.075,10.146-1.28s6.859-.312,12.331-.383c5.472-.032,8.866-.17,10.253-.277l5.16.138,8.76.383,8.728.379,5.16.138,3.082-.241,3.465-1.8,3.465-1.8c1.419,1.284,5.333,2.7,11.6,4.295,6.27,1.56,10.495,2.979,12.643,4.192,1.348-.106,4.224-.486,8.657-1.177,4.4-.66,7.274-.7,8.728-.138l8.451,3.5,6.926,3.046,5.749,1.146,2.734,2.355,2.667,1.351,5.266,1.66,4.156.727,4.362,3.256,3.394,4.365,5.093-.347c3.185,5.887,9.522,13.125,19.083,21.648q14.283,12.831,33.074,37.124,18.753,24.21,38.685,64.35,19.949,40.158,35.982,103.656c-1.209,2.149-1.49,5.614-.759,10.356.657,4.745,1.557,9.838,2.663,15.207,1.11,5.4,2.149,10.285,3.153,14.647,1,4.4,1.177,6.962.553,7.689l-.9,1.6-.9,1.592-3.983,1.869-4.99,1.9-2.493,1.213-2.458,1.213-1,.068-4.678-.692-3.671-.727c-2.043.138-5.575.589-10.7,1.28-5.057.763-10.324,1.316-15.8,1.7-5.437.415-10.736.794-15.825,1.177a52.622,52.622,0,0,0-11.675,1.9l-2.042.138-5.366-2.667-1.213-3.014-1.28-2.975-15.658-72.8-1.28-2.979-1.213-2.975a95.014,95.014,0,0,0-2.319-10.115c-1.419-5.369-2.181-8.38-2.217-9.075-.936-3.358-2.529-8.206-4.674-14.544-2.217-6.338-3.671-10.146-4.469-11.5-.83-2.011-2.043-4.781-3.706-8.451a113.47,113.47,0,0,0-5.99-11.359c-2.322-3.951-4.469-7.724-6.479-11.327-1.972-3.635-3.359-6.093-4.156-7.409-.067-1.351-1.454-3.639-4.086-6.894a64.1,64.1,0,0,0-6.164-6.717l-6.061-5.717-8.277-7.618-8.242-7.1L2747,3660.7c-2.181-1.213-4.848-2.876-8.1-5.022s-6.682-4.469-10.249-6.93a110.333,110.333,0,0,0-9.7-5.954l-5.334-2.185c-6.267-1.592-11.5-2.734-15.654-3.461-4.156-.692-8.309-1.454-12.5-2.149-4.121-.727-7.621-1.316-10.391-1.8l-2.043.138q-8.1,1.66-18.806,2.944a150.3,150.3,0,0,0-20.744,4.121,232.618,232.618,0,0,1-24.279,4.883,33.575,33.575,0,0,0-9.04,2.734c-4.018,1.7-8.451,3.568-13.438,5.646a110.026,110.026,0,0,0-13.4,6.614,74.85,74.85,0,0,1-8.9,4.781c-1.316.8-3.88,2.7-7.756,5.713s-8.277,6.27-13.16,9.7c-4.919,3.461-9.594,6.891-14.133,10.32a130.371,130.371,0,0,1-10.735,7.479l-5.82,5.022-8.139,7.827-8.1,8.313-4.71,5.472c-1.869,2.876-4.469,7.377-7.724,13.438-3.359,6.061-7.131,12.675-11.395,19.846s-8.033,14.129-11.324,20.85a143.279,143.279,0,0,1-7.618,14.441l-1.663,5.3c-.486,2.77-1.11,6.061-1.836,9.87-.728,3.844-1.352,7.483-1.767,10.945a64.632,64.632,0,0,1-1.454,8.313c-.486,2.078-1.454,5.4-2.841,9.973-1.351,4.575-2.734,9.284-4.086,14.168-1.316,4.915-2.7,9.625-4.054,14.164-1.348,4.571-2.319,7.894-2.873,9.973a39.482,39.482,0,0,1-1.039,6.756c-.727,3.844-1.454,7.827-2.149,11.98-.759,4.156-1.454,8-2.248,11.466a31.366,31.366,0,0,0-1.074,6.235l-2.494,7.412a191.234,191.234,0,0,1-.624,19.566q-.99,14.443-2.355,30.964-1.3,16.57-2.287,31c-.656,9.661-.83,16.484-.518,20.6l4.192,56.176c.241,3.429.759,8.348,1.592,14.789s1.663,13.232,2.561,20.332c.833,7.132,1.873,13.75,2.979,19.81a122.07,122.07,0,0,1,1.94,12.189,70.291,70.291,0,0,0,2.355,10.632c1.386,5.022,2.84,10.217,4.227,15.587,1.454,5.4,2.837,10.6,4.295,15.619a63.39,63.39,0,0,1,2.284,10.6c.83,1.351,2.631,5.3,5.544,11.948a141.018,141.018,0,0,0,6.649,13.888l1.177,1.94,1.107.972,2.355,3.912,1.316,4.018L2465.3,4238l3.532,5.4,2.355,3.915,1.7,2.458.794,3.532c1.525,1.94,3.809,5.369,6.926,10.288q4.623,7.325,9.905,15.686c3.465,5.543,6.614,10.806,9.352,15.725a95.141,95.141,0,0,0,6.44,10.32,58.177,58.177,0,0,0,7.206,7.171,126.581,126.581,0,0,1,9.973,9.522c3.327,3.532,6.27,6.582,8.9,9.111l4.951,4.742c.763,1.351,3.189,3.362,7.135,6.132,3.947,2.805,8.519,5.922,13.54,9.281,5.022,3.394,9.905,6.65,14.583,9.731a73.58,73.58,0,0,0,11.288,6.338c.66-.068,2.912.45,6.788,1.56,3.812,1.075,8.036,2.284,12.607,3.671,4.536,1.387,10.632,2.805,18.286,4.295a56.252,56.252,0,0,1,7.274,1,46.815,46.815,0,0,0,10.32.762l18.427-1.351c3.359-.277,7.894-1.454,13.576-3.6,5.646-2.11,11.636-4.291,18.009-6.476,6.338-2.181,12.328-4.156,18.044-5.99,5.678-1.766,10.182-3.117,13.541-4.085,2.631-1.525,7.2-4.263,13.82-8.21,6.511-3.912,10.423-6.579,11.7-8.068,1.316-.8,4.4-2.529,9.352-5.3s8.068-4.575,9.387-5.3l6.128-.482,4.054-.312a152.809,152.809,0,0,0,12.4-13.232c5.678-6.614,8.8-10.6,9.348-12.015a65.218,65.218,0,0,0,4.156-6.48,58.116,58.116,0,0,1,5.093-7.547l1.213-4.713,3.117-5.887c1.87-2.908,4.086-9.21,6.82-19.013,2.7-9.8,5.508-20.435,8.416-31.968q4.368-17.246,7.171-34.461,2.857-17.14,2.043-27.357l1.387-9.352,1.28-3.706,1.281-3.671a55.733,55.733,0,0,1,1.039-13.437c.972-5.543,1.387-8.973,1.248-10.356.486-2.77,1.075-6.752,1.731-11.948.624-5.2,1.248-10.529,1.872-16.073.621-5.5,1.245-11.047,1.869-16.587a74.7,74.7,0,0,0,.589-12.367l2.529-7.377-.9-12.26-5.125.383c-2.7.206-9.04.518-18.91.9q-14.858.622-32.28,1.383c-11.6.521-22.375,1.145-32.209,1.872-9.905.759-16.207,1.209-18.909,1.419l-7.172.553c-3.22,2.944-9.905,4.678-20.154,5.057q-15.326.676-33.908,0-18.491-.676-37.057-.865c-12.327-.1-22.165.794-29.577,2.734l-.344-18.491-.763-3.5-1.734-2.493-4.813-64.347,265.949-15.689,5.681.067c3.046.138,6.511.209,10.285.277,3.742.106,7.171.174,10.289.245l5.642.1c1.319-.763,4.469-1.869,9.526-3.256,5.057-1.419,7.9-2.146,8.59-2.216l4.086-.277,3.671,1.245,2.738,2.39,2.043-.138,3.046-.241,5.4,3.185,4.295,2.252,1.28,17.353-2.873,3.323c.277,2.738.241,7.689.1,14.891-.174,7.207-.276,14.548-.382,22.1q-.208,11.325-.416,22.13c-.138,7.2-.138,12.193.071,14.891-.557,2.114-1.145.589-1.873-4.5-.759-5.057-1.383-6.894-1.972-5.508l1.833,24.52c-.553,1.454-1.454,5.958-2.561,13.576-1.177,7.622-1.663,12.434-1.49,14.477-.589,1.422-1.039,4.883-1.284,10.356-.277,5.543-.379,8.625-.344,9.281l-.762,3.674-.763,3.635a30.684,30.684,0,0,1-1.075,6.235,38.979,38.979,0,0,0-1.07,6.267l-.419,1.039-.45,1.075-.933,1.11a57.281,57.281,0,0,1-.486,7.721,60.642,60.642,0,0,0-.486,6.721l-1.9,2.181-.933,1.11c.032.692.415,3.22,1.072,7.618.659,4.433,1.039,6.962,1.074,7.618q-6.751,46.755-14.062,80.178Q2908.811,4288.685,2896.9,4314.747ZM3320.255,5220.2l-8.175,42.288a53.145,53.145,0,0,1-.968,5.54c-.691,3.22-1,5.057-1.039,5.472l-1.454,1.387-.7.656-15.686-.83-3.706.1-6.685.7-7.065.656-4.121.1c-1.007-.067-3.844-.45-8.554-1.142-4.745-.727-9.873-1.383-15.345-1.9-5.437-.518-10.665-1.177-15.655-1.9-4.95-.763-7.721-1.11-8.171-1.178-2.011-.138-6.721-.138-14.164-.036-7.448,0-15.551.036-24.212.036q-13.038,0-23.825.068c-7.206.106-11.778.071-13.785-.032l-17.871-.936-4.847.036c-2.738.1-5.856.138-9.285.206-3.532.036-6.614.071-9.317.209l-4.848.036-5.227-.277-7.827-.45-7.826-.419-4.469-.276-5.923.418c-2.979.277-6.235.589-9.665.83-3.5.312-6.823.656-10.008,1.213a38.644,38.644,0,0,1-6.373.727l-11.185-.624-11.154-.624-3.358-1.213-3.395-1.245c-.486-.036-2.355-.277-5.61-.692-3.256-.383-5.575-.66-7.065-.731-1.525-.032-3.88-.138-7.065-.032-3.256.032-5.093.067-5.61.032l-53.647-.83c.518.036.83-1.592,1.072-4.848.138-3.22.521-4.884,1.039-4.884.418-.9.869-4.018,1.316-9.352.348-5.334.557-8.969.521-10.838l-3.358-62.446c-.035-1-.486-4.018-1.316-9.21s-1.248-8.21-1.284-9.214l-.035-2.078-.032-.692.727-2.046,1.454-2.043.277-4.884.209-6.994-.486-7-.45-4.919-2.355-6.476-.1-4.5-.138-8.107-.138-8.068-.106-5.263c-.035-1.387-.173-5.128-.589-11.221q-.516-9.145-1.039-19.672c-.451-7.033-.763-13.576-1.143-19.637-.38-6.132-.553-10.079-.589-11.952-.071-1.383-.209-4.188-.521-8.416s-.518-8.692-.589-13.331c-.138-4.71-.067-9.143.071-13.335.209-4.227.241-7.238.209-9.075l-.9-172.993-.277-13.611-.209-10.044-1.177-2.216-1.177-2.181-.035-3.6-.1-4.295c-.035-.968-.071-4.05-.209-9.317-.1-5.263-.206-10.735-.277-16.484-.174-5.713-.138-11.154,0-16.452.138-5.2.209-8.313.209-9.246l-.071-3.6-.138-4.259-.762-1.49-.794-2.217-.8-2.908,2.078-8.451c.486.036.968-1.592,1.387-4.919a55.932,55.932,0,0,0,.588-7.132l.312-3.915.206-4.642-.348-1.419-.415-2.146-.067-2.185-.45-5.366c-.312-3.117-.66-6.721-.972-10.806-.379-4.054-.794-7.76-1.351-11.189-.553-3.287-.83-5.3-.865-5.749a156.146,156.146,0,0,1,24.52-3.564c7.9-.521,17.977-.486,30.166-.036,12.122.482,27.708,1.28,46.618,2.39q28.311,1.66,74.529,2.944l17.112,1c6.44.379,18.009.968,34.7,1.7q24.933,1.09,52.5,1.975,27.588.936,52.193,2.007,24.625,1.09,34.287.936l4.848-.035,4.125,1.284,5.227.692,5.267,2.078,1.485,1.869.833,2.564.415,2.146.415,2.149-.692,1.419v2.149l-1.387,3.117-2.216,3.117.9,42.944c0,.45-1.731,1.454-5.16,2.908-3.429,1.49-6.128,2.631-8.1,3.465l-5.61-.695c-2.77-.415-5.749-.933-8.968-1.557-3.256-.692-6.271-1.248-8.973-1.628l-4.884-.624c-.968-.067-3.22-.067-6.65-.067-3.532.032-7.1.067-10.806.138-3.738.036-7.341.036-10.8.036-3.5.068-5.508.068-5.958,0l-14.892-.869c-2.078-.067-7.274-.17-15.654-.206q-12.677,0-27.606.206c-9.905.106-19.115.174-27.531.138-8.451,0-13.682-.1-15.622-.206l-81.282-4.745-39.415,4.121-2.146,4.157c0,.518.067,3.117.138,7.862.1,4.745.1,10.249,0,16.417-.138,6.231-.277,12.4-.415,18.633-.106,6.164-.138,10.976-.071,14.267l1.8,88.073,1.177,56.591,4.5,3.082,266.6-1.454,1.525.1,1.454.036a38.8,38.8,0,0,0,7.827,1.56c3.742.447,5.887.933,6.408,1.419l3.046,2.355,2.7,23.758.45,22.2-1.386,4.572-.692,3.915.067,2.837.071,2.149-5.958,1.766-70.1-4.089c-.972-.067-3.188-.067-6.721-.032-3.461,0-7.167.174-11.118.415-4.015.206-7.721.415-11.185.415-3.461.036-5.472.036-5.923,0l-9.7-.553c-1.49-.1-5.231-.071-11.189.036-5.954.138-12.189.277-18.6.344-6.476.106-12.572.348-18.25.727-5.713.347-9.317.521-10.806.45-1.975-.138-6.44-.379-13.4-.794-7.033-.383-14.445-.865-22.34-1.316-8-.486-15.448-.9-22.406-1.319s-11.465-.691-13.441-.794c-2.493-.138-7.792-.312-16-.553s-13.544.067-16.036.83l-4.433.486-4.157-2.7-1.039,3.046-.309,3.153c.1,6.547-.035,18.112-.486,34.6-.45,16.59-.763,33.939-.936,52.158s-.277,35.567-.518,52.122c-.174,16.555-.209,28.088-.106,34.67l.21,11.221.209,9.8a47.924,47.924,0,0,0,1.245,7.068,58.463,58.463,0,0,1,1.212,7.065l14.165.794,15.655.865q63.325,2.08,106.531,3.429,43.222,1.3,71.138,1.8,27.95.468,43.568.692c10.458.106,18.495.035,24.244-.138,5.678-.1,9.905-.241,12.608-.344,2.734-.071,5.816,0,9.349.17,5.958-1.036,10.149,0,12.71,3.153C3322.61,5211.822,3322.681,5215.666,3320.255,5220.2Zm80.763-760.03-.553,1.387-.518,1.418-1,1.872-.557,1.383-.553,1.422-.968.9-3.812-.142-2.837-.138c-1.284-.032-4.433-.17-9.491-.38s-10.739-.312-17.108-.241-12.4,0-18.08-.245-9.143-.692-10.391-1.383l-13.643-38.582-2.773-2.043-1.8-3.362-.833-2.422-49.7-133.3-1.284-2.912-1.245-3.841-2.738-3.915-2.667-3.915c-.624-.656-1.49-2.6-2.631-5.816s-2.007-5.16-2.6-5.82l-1.766-3.88-1.319-2.422-2.284-2.458-1.663-4.816-27.223-56.314c-1.833-1.316-3.809-3.773-5.887-7.377-2.078-3.532-4.018-5.99-5.887-7.341-2.284-5.16-4.709-8.763-7.135-10.771-2.458-2.011-4.813-6.511-7.065-13.611l-1.766-2.912-1.213-5.3-1.245-4.327c-1.284-.035-2.912-3.291-4.848-9.7s-3.536-10.632-4.713-12.572l-2.837-.1c-1.213-1.316-2.841-4.71-4.781-10.182-2.043-5.472-4.642-14.615-7.965-27.428L3099.779,3920l.138-3.809-.865-.972-16.034-27.325L3072.49,3842.8l-.348-1.94-.379-2.873.1-2.841c-.624-.66-2.043-4.018-4.33-10.147s-3.982-10.806-5.16-14.026l-1.834-1.007-1.837-1.039-1.248-4.327-1.244-4.33a30.452,30.452,0,0,0-1.664-5.784c-1.177-3.22-2.284-6.405-3.461-9.629-1.11-3.22-2.216-6.44-3.394-9.661-1.146-3.22-2.011-5.472-2.564-6.788l-1.8-2.912-.762-3.844-2.6-6.267-3.916-8.728-3.947-8.242-1.731-4.816c.067-1.28-1.039-5.3-3.327-12.016-2.217-6.756-3.671-10.462-4.259-11.153-.588-1.28-1.9-3.88-3.947-7.76-2.114-3.876-3.429-6.44-3.982-7.756l-1.664-5.784-.762-4.781-.277-4.291-1.316-3.394a47.48,47.48,0,0,0-.692-5.717l-.7-5.749c-.621-.656-1.66-3.22-3.046-7.724-1.387-4.465-2.77-9.281-4.156-14.406s-2.631-9.941-3.706-14.409a49.98,49.98,0,0,1-1.557-7.689l.206-5.713.245-5.681,3.912-1.766,5.334-3.564,4.366-2.667c1.972-1.178,5.61-1.351,10.976-.521,5.369.865,8.348,1.28,8.973,1.351.621,0,4.291-.138,10.941-.518,6.721-.347,12.572-.762,17.665-1.181l1.869,1.007,3.812.174,5.643,1.209,5.3-1.245,4.295-.276,1.316,1.94,1.351,1.936.936.071.968-.45.972-.415,1.419.518,1.387.521.968.067c.589.624,3.082,1.213,7.515,1.7,4.433.518,6.93,1.107,7.551,1.766,0,.624.762,4.469,2.39,11.5,1.628,7.065,2.39,11.185,2.323,12.469.621.656,1.348,2.908,2.146,6.717.763,3.844,1.766,6.132,3.046,6.788l.833,1.94.9,1,125.2,357c.589,1.316,1.734,3.845,3.5,7.724,1.731,3.915,3.185,6.511,4.433,7.827.589.66,1.869,3.844,3.876,9.664,1.975,5.784,2.979,9.317,2.912,10.562l1.766,2.944,109.4,231.8,3.117,3.912,3.189,3.947,1.766,3.88c1.28-1.245,3.323-4.156,6.061-8.8,2.7-4.642,4.745-7.586,6.061-8.8l2.043-3.706,2.146-4.674,1.04-2.805,26.495-67.4,2.493-1.8,1.49-1.834,2.043-3.741,1.145-4.71,2.078-4.192,2.631-6.543,2.631-5.128,1.87,1.039,82.774-210.606,2.979-2.734,1.592-4.192,1.628-5.2,1.975-2.284,1.107-3.291,1.111-4.224,2.145-5.128,1.9-.9,1.007-.419.933-.45,1.213-6.128,2.114-5.125q28.625-72.055,45.682-116.543,17.039-44.467,26.181-70.72,9.144-26.237,12.99-37.993,3.788-11.741,6.44-18.771c1.8-4.674,3.394-9.214,4.848-13.576s4.571-11.533,9.455-21.474l2.114-5.646c1.454-3.706,2.181-6.2,2.252-7.479l1-1.869,3.809.138c1.9.067,5.958.415,12.295,1,6.3.589,15.168,1.248,26.563,2.043q17.04,1.144,45.544,2.319l1.94-.865,1.454-.415,1.454-.415c3.22-1.766,5.263-1.7,6.164.241l-.794,7.586-2.6,5.61-3.6,6.476c-1.387,2.529-3.951,7-7.689,13.473-3.742,6.511-5.993,10.7-6.685,12.572l-1.039,1.833-1.039,2.841-2.146,4.678-3.085,6.026a59.541,59.541,0,0,0-3.706,9.834,91.138,91.138,0,0,1-3.738,10.32l-3.117,5.579-1.593,3.738-1.6,4.678-97.978,232.8-1.142,4.71-1.141,4.713c-1.316.589-3.189,4.153-5.682,10.7s-4.4,10.458-5.713,11.636l-2.043,3.742-2.078,3.742a35.041,35.041,0,0,1-1.663,6.093c-1.107,3.429-1.971,5.472-2.631,6.061-.692,1.873-2.287,5.958-4.781,12.193s-5.263,12.952-8.448,20.087c-3.117,7.167-5.958,13.714-8.383,19.637-2.494,5.923-4.086,9.8-4.746,11.671l-15.065,43.153L3438.111,4366.6l-1.521,2.319-.588,3.291c-.7,1.869-2.841,7.167-6.374,15.9s-7.238,18.112-11.118,28.088c-3.912,9.973-7.653,19.36-11.15,28.052Q3402.061,4457.386,3401.018,4460.172Zm404.31,393.613-.068,2.948c-.12,3.436-.563,5.531-1.3,6.25l-2.99.731-4.019-1.937-3.589-1.537-4.834-.417-4.078.283c-1.438.47-4.685.791-9.564,1-4.952.141-8.128.463-9.6.9l-7.35-.118-14.641-2.389-5.034-4.119-1.392-1.129-2.577-.43-1.809-1.149c.639-5.392,1.146-9.676,1.515-12.875s.846-7.447,1.518-12.911c.1-3.921.04-9.565-.223-16.937-.263-7.407-1.6-11.831-3.973-13.34l-1.7-4.1-3.819-7-3.81-6.76-1.718-4.41-3.52-4.485-6.026-6.681-6.059-6.715-3.488-4.486c-6.137-6.922-11.34-11.936-15.64-14.9a78.608,78.608,0,0,1-12.118-10.449c-.991-.518-4.106-1.412-9.419-2.713a76.132,76.132,0,0,0-9.425-1.883c-1-1-3.383-1.647-7.24-1.928-3.926-.24-6.324-.4-7.328-.4-.453-.055-3.265-.2-8.336-.5-5.1-.269-8.888-.447-11.312-.464-1.941,0-5.543.094-10.875.248-5.361.226-8.513.3-9.415.3-1.991.486-5.421,1.545-10.316,3.209-4.9,1.7-8.324,2.724-10.248,3.207l-2.238,1.432-1.464.744-.737.718a75.078,75.078,0,0,0-10.345,7.266,93.8,93.8,0,0,1-8.882,6.484c-1.475,1.44-4.231,3.894-8.164,7.256-3.972,3.363-8.035,6.975-12.229,10.865q-6.294,5.786-11.848,10.819c-3.691,3.389-6.31,5.771-7.784,7.243-1.038,1.943-3.047,5.932-6.09,11.963-3.077,6.071-4.908,10.086-5.393,12.012l-1.912,4.71-2.4,7.64-2.371,8.367-1.26,5.485-.758,2.142-.1,2.186-.067,2.912.668,2.229c.395,2.414.99,6.48,1.776,12.031.823,5.585,1.429,8.927,1.877,9.88.468,1.474,1.8,4.787,4.062,9.941,2.262,5.118,3.862,8.213,4.763,9.188-.018.483,1.26,2.312,3.8,5.546,2.536,3.167,4.285,5.533,5.239,7.021l2.738,2.954c.955.484,3.293,2,7.09,4.5a53.618,53.618,0,0,1,7.084,5.224l.718.737,1.334,1.475a73.6,73.6,0,0,0,7.463,4.17c3.562,1.779,5.819,2.877,6.774,3.4.919.485,3.241,1.514,6.8,3.048,3.552,1.5,7.36,3.309,11.38,5.281,4.022,2.04,7.866,3.844,11.418,5.346s5.844,2.564,6.8,3.052c.952.52,3.315,1.614,7.088,3.421,3.8,1.77,8.134,3.7,12.922,5.708,4.786,2.083,9.079,3.939,12.851,5.746,3.84,1.8,6.231,2.692,7.2,2.725a59.477,59.477,0,0,0,8.308,2.685,70.694,70.694,0,0,1,8.24,2.723l3.973,1.555,6.776,3.432,6.842,3.4,3.965,2.318,3.6.809,3.6.773c.989.554,3.358,1.818,7.2,3.8,3.817,2.047,6.185,3.385,7.17,3.833l6.455,3.1,5.4,2.686,4.677,1.91,58.017,43.094,3.122,4.878,3.914,4.886,7.129,7.476c.884,1.495,2.284,3.837,4.165,7.059,1.85,3.227,3.7,6.49,5.58,9.713,1.811,3.229,3.447,6.325,4.838,9.324l2.772,5.9a101.6,101.6,0,0,1,5.412,13.771,111.069,111.069,0,0,1,3.986,13.688c.729,7.838,1.237,14.335,1.594,19.486.253,5.122.612,10.411.91,15.805s.416,9.829.3,13.23l-.121,4.369a74.8,74.8,0,0,1-1.027,9.153c-.6,3.659-1.225,7.457-1.852,11.294-.588,3.935-1.225,7.457-1.806,10.6l-.881,5.475-2.376,4.346-3.112,5-.782,1.447-1.541,1.474-1.519,2.1-.747,1.446-.8.721-2.708,5.781-3.987,8.63-3.545,7.578-2.354,3.966a238.063,238.063,0,0,1-21.971,23.411,115.458,115.458,0,0,1-26.917,18.768l-5.226,3.131c-2.96,1.6-6.045,3.441-9.229,5.527-3.289,2.022-6.341,3.9-9.3,5.462l-5.19,3.13-5.127,2.017-8.119,2.577-8.466,2.657-5.466,1.27c-1.024.452-3.7,1.31-8.05,2.643-4.425,1.3-9.164,2.576-14.313,3.87-5.087,1.256-10.1,2.506-14.938,3.824a107.325,107.325,0,0,1-11.662,2.494l-6.183,1.568-6.138.843-11.591-.418-2.061-1.488-2.133-1.518a44.437,44.437,0,0,1-6.494-1.295c-3.321-.886-6.782-1.7-10.347-2.578-3.564-.842-7.06-1.655-10.384-2.505a36.906,36.906,0,0,0-6.388-1.3c-.5-.5-2.614-1.465-6.405-2.785a63.837,63.837,0,0,1-7.1-2.764l-2.843-.108c-.487-.015-3.235-1.269-8.18-3.9-4.943-2.6-10.484-5.415-16.592-8.527-7.057-3.56-15.313-7.7-24.7-12.358q-21.618-20.231-35.394-38.316a237.4,237.4,0,0,1-22.2-34.595,183.323,183.323,0,0,1-18.788-55.717l.1-2.878-2.131-26.784.124-4.3,1.072-1.078,1.835-1,2.529-1.027,2.5-1.753.694.046-.291-.4a114.178,114.178,0,0,1,11.78-.039c6.106.163,16.372.458,30.666.851l13.6.347,2.761,2.606,1.34,2.55c-.557,1.929-.875,5.645-.991,11.16-.186,5.553-.06,9.083.34,10.559a60.394,60.394,0,0,1,1.647,7.287c.6,3.375,1.214,6.923,1.83,10.538.615,3.651,1.249,6.886,1.875,9.809l1.627,5.837,4.117,6.61c2.775,2.985,5.939,6.233,9.39,9.68,3.52,3.48,6.861,6.825,10.1,10.074,3.268,3.28,5.354,5.353,6.291,6.359l1.685,2.573,2.494,1.888,4.163,4.114,7.05,5.26,6.7,5.3,4.556,3.373c.433.506,2.47,1.3,6.047,2.386s7.36,2.407,11.438,3.994c3.973,1.558,7.658,2.882,11.024,3.941q4.945,1.645,5.7,2.4l5.638,2.677,5.712,2.742,6.472,1.675,5.706,1.6,23.836.781c1.924-.381,5.941-1.5,12.082-3.237a109.237,109.237,0,0,0,12.061-3.931,43.656,43.656,0,0,0,7.014-3.436c3.192-1.845,6.759-3.913,10.729-6.237,3.94-2.291,7.636-4.5,11.1-6.566s5.9-3.57,7.427-4.49c.956-.449,3.076-2.224,6.327-5.286a53.968,53.968,0,0,0,6.415-6.744,50.318,50.318,0,0,0,5.337-6.773,54.751,54.751,0,0,1,5.307-6.74l1.614-4.319,3.184-7.981,3.168-8.292,2.384-6.114a41.358,41.358,0,0,1,1.311-6.942,55.58,55.58,0,0,0,1.312-6.91l1.068-34.347c-.45-.988-.846-3.331-1.253-6.989-.339-3.661-.524-5.943-.525-6.983-.453-.953-1.6-3.027-3.414-6.291a49.747,49.747,0,0,0-4.211-6.362l-.267-3.631-.972-2.978c-1.421-1.926-4.465-5.7-9.168-11.215a105.68,105.68,0,0,0-10.587-11.2l-2.83-2.639-3.6-1.916c-.938-1.042-2.957-3.22-6-6.753-3.068-3.461-4.8-5.443-5.3-5.944l-2.447-1.542-2.548-1.5c-.956-.523-3.365-2.031-7.128-4.566-3.835-2.532-6.182-4.283-7.084-5.291-1.976-1-5.535-2.681-10.784-4.989q-7.916-3.461-16.5-6.968c-5.764-2.325-11.249-4.487-16.518-6.553-5.273-2.1-8.853-3.358-10.746-3.915a58.886,58.886,0,0,0-7.154-2.379c-3.847-1.006-8.152-2.2-12.947-3.525-4.76-1.321-9.063-2.378-12.868-3.215a37.516,37.516,0,0,1-7.21-1.962c-1.889-.522-5.112-1.55-9.6-3.122-4.563-1.573-9.335-3.238-14.285-5.039-5.021-1.8-9.66-3.606-13.95-5.395-4.221-1.756-7.32-3.171-9.159-4.181-1.424-1.021-5.133-3.04-10.994-6.089-5.9-3.013-10.054-5.015-12.381-6.075a58.381,58.381,0,0,0-7.049-5.225,50.034,50.034,0,0,1-7.044-5.19l-3.863-3.362-3.1-3.357c-.935-.936-3.26-3.071-6.981-6.3-3.752-3.227-6.079-5.292-6.981-6.3l-2.449-2.617-1.72-2.572-1.995-4.4-2.809-2.948a128.461,128.461,0,0,0-6.788-13.552c-3.631-6.6-5.863-10.881-6.8-12.856l-.677-1.466-.316-1.1-.351-1.095-.621-2.891-1.355-2.965-.666-2.162c-.416-1.923-1.159-5.363-2.233-10.212-1.038-4.85-1.811-8.009-2.21-9.485.036-.974-.246-4.012-.842-9.087a72.3,72.3,0,0,0-1.529-9.857l.42-14.533a39.061,39.061,0,0,0,1.986-6.519c.777-3.388,1.62-7.024,2.384-10.9.9-3.879,1.67-7.615,2.475-11.245.809-3.6,1.516-6.154,2.018-7.627a63.679,63.679,0,0,0,2.352-6.911c.983-3.6,1.793-6.164,2.363-7.6l1.433-.711.734-.718c.94-.935,2.343-3.377,4.111-7.251,1.8-3.875,3.139-6.244,4.143-7.252l1.938-3.983,2.624-3.248,2.911-2.875,3-6.171,3.8-6.2,2.895-1.419,1.51-1.441,2.228-3.614,3-4.369,1.471-1.44,1.438-1.471,2.318-4,2.243-3.266,2.64-4.7,2.64-4.7,1.1-1.146,1.832-1.073c.52-.952,2.371-2.611,5.541-5.048a54.721,54.721,0,0,1,6.254-4.346c.52-.952,2.387-3.03,5.6-6.158,3.181-3.165,5.289-5.249,6.259-6.22,1.492-.954,4.1-2.641,7.723-5.058,3.69-2.417,6-3.609,6.973-3.608a51.242,51.242,0,0,1,9.905-5.065q6.921-2.844,14.3-6.123c4.88-2.182,9.418-4.111,13.587-5.821,4.132-1.637,6.972-2.707,8.411-3.173.954-.52,3.919-.87,8.731-1.073,4.843-.243,7.742-.552,8.732-1.038l4.41-.714,5.143-1.464c6.777-.415,12.45-.755,17.12-.957,4.565-.265,9.342-.435,14.222-.644,4.844-.2,8.758-.311,11.669-.276l2.182-.007a105.566,105.566,0,0,1,10.565.8c4.143.545,8.285,1.058,12.395,1.568,4.108.55,9.334,1.333,15.674,2.285l5.743,2.638c2.888,1.285,6.195,2.654,9.819,4.19,3.618,1.465,7.1,2.97,10.486,4.478,3.343,1.51,6.266,2.758,8.694,3.783.952.52,3.954,2.006,9.03,4.459a102.767,102.767,0,0,1,9.788,5.3,67.183,67.183,0,0,0,7.871,5.994c4.333,3,7.21,4.974,8.669,5.963a84.229,84.229,0,0,1,5.616,7.842c2.856,4.263,4.956,6.857,6.411,7.845l2.774,4.859,3.487,5.557,2.923,2.252,2.119,3.012,1.026,2.6,1.037,1.833,2.066,4.5,2.878,2.982,2.8,3.715,1.388,3,1.307,5.532,1.36,4.111.975,4.089,1.983,7.069,1.987,7.069.975,4.053c.452,1.024.962,4.576,1.493,10.76.53,6.22,1.021,10.255,1.44,12.252.45.988.851,3.469,1.268,7.4.351,3.973.505,6.43.473,7.4l.217,5.191c.141,2.976.4,6.292.77,9.987s.616,7.533.756,11.478C3805.372,4848.134,3805.414,4851.323,3805.328,4853.785Zm606.189-113.464-3.153,2.773-4.741,2.734c-1.039.486-4.4,1.213-10.043,2.114-5.718.933-9.076,1.663-10.115,2.146l-5.749-.933-4.986-.138q-48.941,2.021-97.875,4.188l-2.355-.036-5.82,1.458-4.986.656c-1.039.521-3.6.45-7.756-.138-4.053-.624-6.373-.936-6.859-.936-1.56-.032-4.536-.138-8.9-.241-4.33-.067-8.969-.209-13.852-.312-4.848-.1-9.49-.206-13.888-.277-4.366-.138-7.064-.241-8.068-.241-.557-.036-2.425-.174-5.82-.521-3.327-.379-5.263-.553-5.749-.553a63.26,63.26,0,0,0-6.962.589c-3.635.45-5.994.9-6.962,1.387-.1,2.631-.45,7.409-1.106,14.441-.624,6.994-1.11,14.544-1.561,22.58q-.622,12-1.177,22.406c-.415,6.93-.589,11.672-.624,14.271-.1,4.607-.174,9.21-.277,13.852-.518,1-.692,4.433-.589,10.32.138,5.855.45,12.019.865,18.427a99.749,99.749,0,0,1-.312,16.725c-.621,4.816-1.9,6.618-3.947,5.508v1.561l-.036,1.486.763.8,1.074,2.7c.206,1.766-.521,8.933-2.287,21.47l-.1,4.539q-1.505,43.9-3.046,87.9c-.8,18.321-1.628,36.607-2.494,54.963q-.468,30.338-1.007,60.747c-.067,1.9-.138,5.472-.206,10.735-.106,5.266-.174,10.7-.277,16.417s-.245,11.186-.347,16.381c-.071,5.2-.138,8.8-.138,10.632q-.053,2.181.209,9.561c.138,4.986.17,10.285.067,15.9s-.067,10.909.071,15.828c.17,4.919.241,8.068.206,9.419,0,2.39.036,6.337.174,11.948.138,5.579.138,11.639.035,18.08-.106,6.511-.347,12.572-.7,18.321-.379,5.749-.518,9.732-.553,12.086l1.731,4.192.972,4.848c0,.936-.312,3.568-.865,7.862-.589,4.33-.833,6.926-.833,7.827l.66,2.078,1.419,2.146c-.067,3.844-.17,7.724-.206,11.6l-2.217.138-3.014-.071c-2.284-.067-5.089-.312-8.451-.727-6.65-.763-11.253-1.177-13.611-1.316-6.958-.312-13.888-.624-20.845-.968l-3.568.17-6.132.73c-2.181.38-5.2.656-9,.968l-2.873-.138-4.295-1.593-3.6-1.49.1-8.9,1.454-2.355,1.458-2.288-1.458-2.146-1.419-2.114-.656-3.773-.762-3.153.032-1.351.8-4.777.692-4.781c.557-2.32,1.177-6.373,1.975-12.331a115.814,115.814,0,0,0,1.142-12.43c.035-5.3.106-10.632.138-15.934q.106-13.922.763-45.125c.347-20.921.936-44.643,1.7-71.312q1.037-40.153,1.8-84.884.782-45.1,1.908-86.583,1.091-41.823,1.8-74.983.676-33.4.833-49.388.468-45.2.866-90.183l-2.288-2.426-5.816-.589c-2.841-.347-6.061-.762-9.663-1.177-3.636-.415-7.136-.8-10.424-1.177-3.394-.45-6.1-.692-8.175-.8-2.6-.1-6.475-.415-11.671-.9-5.124-.518-10.458-1.036-15.9-1.66-5.4-.521-10.356-1-14.721-1.525-4.433-.518-7.167-.83-8.171-.83-7.274-.45-16.452-.9-27.638-1.422q-16.73-.723-27.638-.83l-3.465,1.7-3.5.869-5.82-.869-9.04-1.557-8.554-1.142-4.674-.45-5.437.312c-2.6.277-5.61.621-8.973,1.106s-6.44.8-9.281,1.039l-5.125.241-3.117-.277-2.355-1.869-2.39-1.837-1.557-.933-.8-1.7-2.426-4.607-3.22-3.947-.865-4.085-.83-2.493q-1.664-26.652-3.394-53.335l1.142-2.7,1.143-1.869c1.074-.383,3.947.138,8.727,1.592s7.377,2.146,7.9,2.252c2.043-2.426,6.093-3.4,12.154-2.947s9.594,1.56,10.668,3.224l3.153,1.177,3.221,1.142,3.117.312,4.71.138,3.948-.035c1.6.174,5.645.486,12.228.8,6.543.38,13.469.624,20.814.692,7.306.138,14.129.138,20.4.1l1.32-.019c2.128.092,4.183.129,6.16.09a34.055,34.055,0,0,0,4.33-.036q-5.144,0-9.758-.065c5.109-.064,8.375-.026,9.758.065,11.012.241,21.957.624,32.936,1.248,10.944.589,17.732.9,20.4,1.039,2.043.067,5.611.241,10.529.45,4.986.241,10.285.589,16.069,1.071,5.749.486,11.185,1.074,16.381,1.8,5.2.691,8.866,1.039,10.944,1.11,98.946,1.418,197.584-.833,296.079-.727l1.525.865,1.525.032,1.521.071,4.54,2.529,2.248,2.564q-1.505,18.129-3.011,36.224l5.263,3.394Q4412.314,4730.157,4411.516,4740.321Zm-441.643-72.865c3.394.032,7.065.138,11.012.447,1.434.114,2.818.2,4.181.263-3-.047-5.845-.111-8.508-.192-5.749-.174-9.423-.348-10.98-.486C3965.026,4667.42,3966.444,4667.42,3969.873,4667.456Zm500.6-630.1a132.806,132.806,0,0,1-.83,17.317,54.712,54.712,0,0,1-.727,5.958c-.521,3.323-1.11,6.823-1.6,10.423-.517,3.639-.83,7.309-1.036,10.909-.245,3.639-.312,5.752-.28,6.408l.057,1.574a3.361,3.361,0,0,1-.064.788c-.546,2.73-1.287,7.382-2.312,14.019q-1.612,10.443-4.086,21.889c-1.7,7.621-3.256,14.753-4.606,21.4-1.387,6.466-2.381,11.081-2.875,13.743a2.954,2.954,0,0,1-.088.356c-1.253,3.993-3.244,10.306-6.145,18.8q-4.469,13.039-9.352,27.531c-3.256,9.629-6.338,18.807-9.317,27.5-2.813,8.144-4.791,13.97-5.993,17.395a3.379,3.379,0,0,1-.6,1.057l-4.257,5.061q-.09.107-.17.22l-4.479,6.308a3.429,3.429,0,0,0-.209.334l-2.546,4.643a3.4,3.4,0,0,0-.224.5l-1.525,4.305a3.359,3.359,0,0,1-.4.784q-2.816,4.106-8.617,13.281c-4.05,6.409-8.554,13.2-13.5,20.261q-7.532,10.7-14.062,20.3a142.141,142.141,0,0,1-8.676,11.9,3.06,3.06,0,0,1-1.3.93c-1.516.531-4.194,2.759-8.029,6.6-4.433,4.465-6.961,7.341-7.55,8.692l-.936,2.043-.665,1.458a3.357,3.357,0,0,1-.622.926c-3.188,3.354-7.947,7.856-14.368,13.48s-10.364,8.891-11.823,9.745a3.225,3.225,0,0,0-.307.2c-1.936,1.439-5.419,3.969-10.414,7.682-5.128,3.844-10.7,7.827-16.764,12.019q-9.245,6.288-17.349,12.5a108.636,108.636,0,0,1-11.984,8.348c-1.315.727-4.539,2.146-9.735,4.33-4.653,1.91-7.691,3.547-9.18,4.859a3.39,3.39,0,0,1-1.262.708l-4.463,1.353q-.126.038-.248.086l-4.084,1.591c-.1.04-.205.075-.312.1-5.221,1.48-12.545,3.231-21.871,5.219q-14.182,3.016-28.886,6.511c-9.731,2.39-18.562,4.33-26.389,5.958-7.862,1.592-12.746,2.458-14.721,2.529l-14.786.589-16.764.624a72.31,72.31,0,0,1-11.359-1.039q-8.469-1.144-17.871-2.287c-6.306-.727-12.4-1.454-18.356-2.252-5.958-.762-10.285-1.419-12.92-1.94-2.667-.589-6.819-1.419-12.43-2.525-5.138-.984-8.537-2.084-10.107-3.222-.321-.232-4.931-.3-5.315-.394-.7-.173-1.991,9.955-2.986,9.955-3.776,0-11.946,4.977-13.937,4.977s-12.79,1-22.9,1c-2.986,0-45.84,1.885-47.783,1-5.37-2.39-45.159,3.386-50.769,1-5.713-2.426-5.832-5.408-6.968-9.955-1.991-7.964,1.991-9.955,1-10.95l3.982-14.932,8.959-18.914s10.95-24.887,10.95-25.882l2.986-2.986,4.977-9.955s-.617.618-4.042-2.57c-3.394-3.085-6.584-6.067-9.606-8.881-.063-.059-.123-.119-.182-.183l-5.561-6.033c-.043-.047-.084-.089-.13-.133-1.368-1.31-3.91-4.165-7.659-8.527-3.742-4.433-7.862-9.246-12.363-14.338s-8.66-10.217-12.4-15.306q-5.628-7.508-8.715-11.347a3.044,3.044,0,0,1-.269-.392c-.79-1.356-2.513-4.023-5.112-7.969-2.447-3.607-3.812-6.138-4.189-7.611a3.712,3.712,0,0,0-.566-1.267l-1.356-1.876a3.4,3.4,0,0,1-.422-.783l-.509-1.338a3.514,3.514,0,0,0-1.143-1.582c-1.224-.917-2.7-2.831-4.455-5.8a38.831,38.831,0,0,1-3.087-5.82,3.594,3.594,0,0,0-.447-.928,47.346,47.346,0,0,1-4.466-9.218c-1.8-4.536-3.671-9.246-5.473-14.094-1.837-4.884-3.706-9.249-5.472-13.125s-2.7-6.479-2.738-7.8c-.727-1.28-1.7-6.025-3.011-14.2-1.284-8.171-2.355-12.916-3.014-14.2l-1.029-2.7a3.406,3.406,0,0,0-.181-.4l-.669-1.249a3.405,3.405,0,0,0-.68-.883,3.44,3.44,0,0,1-.948-1.537,133.462,133.462,0,0,1-2.692-13.732,121.127,121.127,0,0,0-2.912-14.285,3.271,3.271,0,0,1-.149-.9c-.131-4.06-.6-11.3-1.336-21.664-.762-10.842-1.316-22.165-1.8-33.975-.45-11.813-1.039-23.173-1.766-34.01-.762-10.841-1.213-18.53-1.387-23.137l-.656-16.761-.415-11.81c-.106-1.975.344-6.444,1.454-13.406,1.039-6.926,2.043-14.37,3.082-22.339,1.039-7.93,1.869-15.342,2.6-22.3.7-6.694,1.309-11.705,1.849-15.036a3.586,3.586,0,0,1,.184-.668,58.734,58.734,0,0,0,1.951-9.127c.833-4.951,1.907-10.075,3.361-15.409,1.419-5.3,2.561-10.458,3.394-15.413a99.536,99.536,0,0,1,1.905-9.97,3.446,3.446,0,0,0,.119-1,37.59,37.59,0,0,1,.6-8.169,3.1,3.1,0,0,0,.053-.441l.266-5.735.267-3.066a3.313,3.313,0,0,1,.441-1.4,61.526,61.526,0,0,0,3.274-8c1.64-4.663,2.534-7.715,2.6-9.18a2.942,2.942,0,0,1,.077-.61l1.184-4.6q.022-.087.049-.172l2.609-8.3q.031-.1.056-.2l2.043-8.213a3.409,3.409,0,0,1,.1-.334l1.512-4.187a3.636,3.636,0,0,0,.23-1.107q.143-4.23,5.231-17.019c3.428-8.576,5.792-14.578,7-18.031a3.451,3.451,0,0,1,.428-.829c.8-1.156,2.548-4.577,5.287-10.231,2.635-5.576,4.609-9.217,5.943-10.969a3.336,3.336,0,0,0,.645-1.662l.267-2.439.218-2.415a3.445,3.445,0,0,1,.7-1.778c.769-1.01,1.965-2.789,3.623-5.365,2.181-3.394,4.536-6.891,6.994-10.632,2.461-3.706,4.678-7.1,6.547-10.111l3.656-6.493q.05-.089.095-.181l3.141-6.455,3.156-6.383c.042-.086.085-.165.134-.247,1.225-2.047,3.352-5.194,6.476-9.542,3.117-4.366,6.2-8.9,9.352-13.647,3.082-4.745,6.2-9.281,9.352-13.714,2.747-3.879,4.743-6.547,6.054-8.074a3.379,3.379,0,0,1,1.11-.849l2.583-1.239a3.4,3.4,0,0,0,.367-.2l1.4-.9a3.4,3.4,0,0,0,1.261-1.458l2.266-4.993q.053-.117.115-.23l2.246-4.1a3.358,3.358,0,0,1,1.256-1.294c2.616-1.525,6.654-4.323,12.16-8.42a142.805,142.805,0,0,1,12.913-8.825c.052-.029.1-.055.145-.088,3.237-2.116,9.206-5.424,17.836-10.032q13.038-6.911,28.538-14.406,15.48-7.485,29.092-13.959c8.987-4.253,15.425-7.081,19.314-8.581.078-.03.148-.054.228-.078,2.6-.774,7.795-2.427,15.471-5.019q11.688-3.9,25.385-7.377,13.667-3.484,26.91-6.444c8.6-1.928,14.883-3.331,18.819-4.134a3.313,3.313,0,0,1,.545-.065l49.558-1.912a3.4,3.4,0,0,0,.883-.152l4.63-1.444a3.4,3.4,0,0,0,.526-.214l4.405-2.233a3.4,3.4,0,0,1,1.424-.366l1.223-.042.87-.031a3.526,3.526,0,0,1,1.8.439,27.072,27.072,0,0,0,5.335,1.773c3.322.83,6.961,1.869,10.979,3.014,3.983,1.177,7.618,2.181,10.944,3.046a27.835,27.835,0,0,0,6.958,1.213l4.954.312,8.416.656,7.93.692,4.35.3q.118.008.236.025l2.4.337a17.423,17.423,0,0,0,4.088-.139l5.973-24.887h1.991c7.964,1,69.084-6.912,75.656-5.973a150.873,150.873,0,0,1,14.932,2.986,63.978,63.978,0,0,0,7.964-1l9.979-3.367c1.209-.378,3.523-1.049,4.419-.153l2.343,2.343c.743.743,1.1,3.778.971,4.821l-2.713,12.748a3.406,3.406,0,0,1-.293,1.018l-13.71,29.378-11.946,23.891-3.753,7.506a3.407,3.407,0,0,0-.313.963l-.911,5.468c.7,1.316-8.459-2.719-2.986,1.991,5.4,4.745-3.409.422-1.991,2.986l1.172.372a3.4,3.4,0,0,1,1.307.768l2.123,2a3.408,3.408,0,0,1,.606.763l.554.95a3.4,3.4,0,0,0,.782.918l3.4,2.791a3.4,3.4,0,0,1,.337.317l2.786,3a3.212,3.212,0,0,1,.252.307c1.452,2,4.845,6.105,10.242,12.276,5.05,5.88,8.683,10.109,10.847,12.742a3.618,3.618,0,0,1,.609,1.007,39.477,39.477,0,0,0,4.127,6.373c2.579,3.622,4.325,6.107,5.1,7.453a3.2,3.2,0,0,1,.228.5l.975,2.648.916,2.4a3.4,3.4,0,0,0,.537.932l2.578,3.178a3.317,3.317,0,0,1,.343.51c1.438,2.644,3.853,7.234,7.3,13.795,3.536,6.752,7.274,13.852,11.154,21.265,3.88,7.444,7.618,14.509,11.221,21.3,3.389,6.478,5.792,11.076,7.234,13.7a3.646,3.646,0,0,0,.437.6c1.323,1.561,3.069,5.834,5.213,12.849,2.078,7.012,3.819,11.562,5.172,13.7a3.306,3.306,0,0,1,.4.846c.782,2.694,2.088,7.427,3.887,14.2,1.9,7.171,3.88,14.824,5.82,23,1.936,8.139,3.912,15.792,5.816,22.96,1.813,6.956,3.172,12.053,3.98,15.324a3.307,3.307,0,0,1,.087.608,39.459,39.459,0,0,0,1.267,6.546c.727,3.291,1.387,6.859,1.9,10.806a99.378,99.378,0,0,0,1.9,11.256,65.939,65.939,0,0,1,1.2,7.11,3.1,3.1,0,0,0,.073.525c.776,3.361,1.516,9.649,2.155,18.927.727,9.49,1.11,15.587,1.213,18.183l1.49,38.444,1.316,35.5Q4470.522,4025.046,4470.47,4037.36Zm115.114,655.513c.659,6.582,1,10.636,1,12.157L4572.77,5137.7l.486,2.287.483,2.284v56.555c0,12.884.138,24.9.521,36.057.312,11.15.486,18.179.486,21.229,0,.518.17,2.529.483,6.1.347,3.532.485,6.338.485,8.345a46.679,46.679,0,0,0,1.49,9.49,71.387,71.387,0,0,1,1.49,7.2,41.243,41.243,0,0,0,1.49,7.586c.969,4.05,1.8,8.345,2.423,12.916.695,4.54,1.351,8.728,2.01,12.5.656,3.809.969,5.954.969,6.476l.521.762.482.762.972,1.49v1.521c-.66.521-2.944,1.248-6.926,2.287-3.915,1.039-6.235,1.766-6.894,2.252l-.969,1.177-1,1.106-1.007,1.561c-2.6.482-7.376,1.209-14.268,2.249a119.307,119.307,0,0,1-15.274,1.525h-14.789c-2.632,0-6.441-.138-11.36-.379-4.951-.28-8.068-.418-9.384-.418l-4.433-2.249-5.437-3.777h-1.007l1.007-1.557,2.007-1.49,1.94-2.287,3.465-1.869,4.465-1.9-3.983-1.561v-6.061l-.968-5.678v-4.919l.486-3.809.482-3.777c.66-1.039.833-3.912.486-8.76-.312-4.816-.83-7.689-1.454-8.728l.968-125.236,2.944-381.07-.968-9.107c0-2.011.174-6.061.486-12.157.38-6.061.692-12.5,1-19.36.312-6.823.83-13.264,1.454-19.325.656-6.1,1-10.391,1-12.92,0-1.521-.138-4.05-.45-7.618-.379-3.5-.692-7.309-1-11.359-.379-4.018-.865-7.827-1.525-11.395a47.188,47.188,0,0,1-.968-7.586l.968-1.525,1.039-1.521,2.426-2.252,4.433-.762,67.085-3.047,3.948,1.521v5.334l1,3.05.972,2.248-2.461,5.3-2.493,4.571C4583.956,4682.035,4584.927,4686.294,4585.584,4692.873Zm88.317-335.424-5.472-5.852c-.731-1.213-2.667-4.259-5.718-9.143-3.117-4.883-5.057-7.93-5.713-9.143l-3.117-4.539-4.018-4.536-7.341-12.813-2.043-2.77c-.624.067-1.837-1.766-3.6-5.44-1.8-3.7-3.358-5.816-4.642-6.369l-1.972-1.8c-.071-1.248-1.213-4.5-3.359-9.732-2.185-5.267-3.639-8.487-4.33-9.735l-3.6-5.437-3.635-5.472c-.692-1.869-1.837-4.639-3.256-8.345-1.525-3.706-2.979-7.76-4.5-12.086-1.521-4.295-2.944-8.348-4.4-12.054-1.525-3.671-2.284-6.164-2.319-7.412-.727-1.869-2.078-5.437-3.915-10.668q-2.8-7.894-5.2-16.761c-1.592-5.887-3.149-11.5-4.674-16.764-1.593-5.263-2.77-8.831-3.43-10.7l-.727-4.227-.83-7.029a38,38,0,0,1-1.49-9.387l-1.213-5.125-2.181-5.089c-.035-.624-.553-2.944-1.387-7.033a60.81,60.81,0,0,1-1.316-7.965l-1-.9-.138-1.869-1.074-2.77c-.139-2.529-.518-6.27-1.107-11.292-.624-5.022-1.213-10.356-1.836-16s-1.214-10.944-1.8-15.966-.968-8.483-1.07-10.356l-2.359-8.416-2.216-40.518a115.457,115.457,0,0,1,.244-11.845c.344-5.369.518-11.083.518-17.076s.138-11.5.486-16.555a102.463,102.463,0,0,0,.38-10.458,87.612,87.612,0,0,1,.762-11.395c.625-5.713,1.387-11.913,2.323-18.562.9-6.685,1.766-13.023,2.735-19.083.9-6.025,1.627-10.632,2.042-13.852l1.628-5.749,1.56-5.749a31.39,31.39,0,0,0,1.521-6.72l.625-5.713.762-3.362.763-3.323.624-6.2,1.521-6.235a37.739,37.739,0,0,1,.972-8.589,38.478,38.478,0,0,1,1.94-7.653,31.331,31.331,0,0,0,3.011-5.852,24.17,24.17,0,0,1,3.844-6.823c-.067-1.248.521-4.433,1.837-9.593,1.28-5.093,1.9-7.965,1.869-8.59l2.631-3.947,2.078-5.3,2.149-4.4.762-2.873.345-2.355.414-1.457,2.979-5.366,2.979-6.338,1.248-2.912,1.21-3.809a60.166,60.166,0,0,1,4.78-7.862c2.6-3.912,5.334-8.171,8.277-12.742,2.876-4.575,5.543-8.834,7.827-12.746a51.183,51.183,0,0,1,5.231-7.862l3.429-6.338,2.493-6.27c.589-.656,2.355-3.117,5.263-7.412a95.309,95.309,0,0,1,7.065-9.384l3.081-3.947,3.224-2.078,1.869-.071,1.9-.1,2.667-3.465,1.663-3.394a109.58,109.58,0,0,1,10.807-9.593q8.208-6.6,17.21-14.2c5.993-5.054,11.774-9.767,17.214-14.164a106.174,106.174,0,0,1,11.774-8.692c1.869-1.387,4.883-3.429,9.143-6.2,4.259-2.738,8.348-5.334,12.4-7.792,3.915-2.39,7.587-4.642,10.944-6.721,3.327-2.114,5.334-3.153,5.958-3.185l80.107-22.41c.621,0,2.837-.277,6.579-.794q5.665-.83,9.454-1.039c2.462-.106,6.235-.174,11.328-.138,5.053.067,8.171.032,9.486-.035l4.71.209,8.072.482,8.068.521,4.745.206,2.841-.17,3.22-1.6,3.189-1.592c1.348,1.213,4.915,2.564,10.664,4.156s9.629,2.944,11.569,4.085c1.281-.067,3.915-.344,8.036-.9,4.05-.553,6.682-.518,8.033,0l7.724,3.362,6.338,2.979,5.267,1.142,2.457,2.217,2.458,1.28,4.816,1.628,3.844.727,3.912,3.117,3.082,4.086,4.709-.277c2.805,5.543,8.558,12.3,17.214,20.332q12.938,12.049,29.855,34.769,16.831,22.758,34.492,60.055,17.667,37.35,31.344,96.212c-1.209,1.94-1.49,5.125-.865,9.49.521,4.4,1.248,9.107,2.181,14.094.9,5.022,1.8,9.526,2.635,13.576s.968,6.408.38,7.068l-.83,1.454-.9,1.49-3.706,1.628-4.607,1.66-2.355,1.074-2.287,1.075-.933.067-4.294-.727-3.327-.763c-1.9.106-5.192.45-9.905,1.007-4.674.589-9.558,1-14.579,1.28-5.057.277-9.905.553-14.65.83a47.383,47.383,0,0,0-10.806,1.525l-1.834.1-4.884-2.56-1.11-2.773-1.107-2.805-13.2-67.393-1.075-2.738-1.107-2.805a76.911,76.911,0,0,0-1.94-9.352c-1.213-4.986-1.837-7.756-1.869-8.416-.8-3.082-2.185-7.582-4.053-13.5a93.381,93.381,0,0,0-3.912-10.668c-.73-1.837-1.837-4.433-3.256-7.862a108.67,108.67,0,0,0-5.334-10.561c-2.078-3.674-4.018-7.206-5.784-10.565s-3.014-5.646-3.671-6.891l-3.674-6.444-5.54-6.3-5.508-5.369-7.515-7.167-7.444-6.685-4.539-4.951-7.377-4.781c-2.944-2.043-6.061-4.227-9.352-6.582a102.782,102.782,0,0,0-8.831-5.678l-4.848-2.078c-5.749-1.592-10.529-2.738-14.374-3.5-3.809-.7-7.653-1.458-11.5-2.185-3.809-.727-7-1.351-9.522-1.833l-1.908.1c-5.021.9-10.771,1.7-17.385,2.39a133.718,133.718,0,0,0-19.186,3.394,206.881,206.881,0,0,1-22.513,4.086,30.492,30.492,0,0,0-8.345,2.355c-3.706,1.49-7.863,3.117-12.5,4.954a97.13,97.13,0,0,0-12.434,5.887,76.822,76.822,0,0,1-8.309,4.259,79.245,79.245,0,0,0-7.238,5.125c-3.671,2.738-7.8,5.646-12.33,8.7-4.537,3.117-9.005,6.2-13.2,9.281-4.259,3.046-7.618,5.3-10.075,6.685l-5.369,4.536-7.689,7.064-7.618,7.515-4.469,4.986c-1.73,2.635-4.227,6.72-7.341,12.228-3.153,5.54-6.823,11.6-10.806,18.112-4.089,6.547-7.724,12.884-10.806,19.013a135.278,135.278,0,0,1-7.345,13.2l-1.592,4.816c-.518,2.561-1.107,5.611-1.9,9.107-.727,3.5-1.351,6.859-1.8,10.008a56.2,56.2,0,0,1-1.49,7.653c-.482,1.94-1.419,4.99-2.77,9.146-1.351,4.188-2.7,8.519-4.018,13.019-1.316,4.469-2.7,8.8-4.015,12.991s-2.288,7.2-2.809,9.107a34.558,34.558,0,0,1-1.071,6.235c-.762,3.532-1.49,7.167-2.217,11.012-.762,3.809-1.49,7.341-2.252,10.529a28.192,28.192,0,0,0-1.11,5.749l-2.493,6.752c.209,3.117-.1,9.143-.9,18.009-.759,8.9-1.7,18.392-2.663,28.538q-1.511,15.225-2.7,28.538a155.243,155.243,0,0,0-.833,18.98l2.876,51.881c.138,3.149.553,7.689,1.213,13.643s1.316,12.228,1.94,18.807c.727,6.582,1.522,12.71,2.493,18.321.9,5.611,1.454,9.352,1.592,11.256.036,1.869.727,5.16,1.941,9.834q1.765,7.017,3.635,14.445c1.248,5.022,2.426,9.8,3.639,14.477a58.517,58.517,0,0,1,1.94,9.834c.691,1.249,2.319,4.919,4.88,11.083a121.055,121.055,0,0,0,5.923,12.92l1.039,1.834,1.007.865,2.075,3.706,1.146,3.706,2.078,3.188,3.149,5.022,2.047,3.671,1.592,2.284.624,3.291c1.348,1.8,3.426,5.022,6.2,9.593,2.734,4.571,5.749,9.455,8.866,14.65s5.887,10.079,8.38,14.686a80.948,80.948,0,0,0,5.713,9.593l6.547,6.752c2.944,2.667,5.958,5.681,9,8.937,3.015,3.323,5.681,6.2,8.036,8.554l4.5,4.5c.66,1.213,2.841,3.153,6.444,5.784s7.721,5.575,12.328,8.8q6.856,4.83,13.3,9.21a65.339,65.339,0,0,0,10.285,6.061,30.944,30.944,0,0,1,6.2,1.525c3.5,1.074,7.377,2.284,11.566,3.6a161.226,161.226,0,0,0,16.8,4.295,48.457,48.457,0,0,1,6.65,1.075,42.708,42.708,0,0,0,9.522.865l16.97-.933a47.531,47.531,0,0,0,12.608-3.05c5.263-1.869,10.806-3.738,16.729-5.678,5.887-1.873,11.5-3.6,16.761-5.16q7.846-2.34,12.572-3.532c2.426-1.387,6.721-3.845,12.817-7.345s9.763-5.887,10.976-7.2c1.213-.727,4.121-2.287,8.728-4.781,4.607-2.422,7.448-4.018,8.692-4.71l5.717-.312,3.706-.206c2.458-2.011,6.338-6.029,11.671-11.983,5.334-5.993,8.277-9.629,8.866-10.909.554-.66,1.869-2.635,3.912-5.891a49.45,49.45,0,0,1,4.848-6.891l1.177-4.33,3.05-5.366q2.6-3.947,6.579-17.388c2.667-9,5.4-18.736,8.313-29.333,2.873-10.565,5.3-21.091,7.2-31.62,1.94-10.494,2.805-18.91,2.427-25.18l1.418-8.621,1.212-3.362,1.248-3.394a53.8,53.8,0,0,1,1.209-12.363c1.007-5.093,1.454-8.277,1.351-9.526.486-2.561,1.11-6.2,1.766-10.976.727-4.781,1.387-9.7,2.043-14.789.659-5.057,1.315-10.15,2.01-15.239a68.182,68.182,0,0,0,.762-11.395l2.493-6.753-.624-11.327-4.71.245c-2.529.138-8.416.312-17.491.482q-13.714.314-29.783.7-16.108.468-29.716,1.177c-9.107.486-14.963.83-17.455.968l-6.65.383c-3.014,2.7-9.214,4.157-18.633,4.327q-14.182.314-31.273-.656c-11.394-.624-22.754-1.11-34.149-1.422-11.327-.309-20.47.348-27.325,2.011l.036-17.041-.66-3.291-1.557-2.284-3.256-59.431,245.446-9.767,5.228.209q4.262.26,9.455.415c3.429.138,6.65.277,9.455.415l5.266.174a49.47,49.47,0,0,1,8.831-2.841,74.465,74.465,0,0,1,7.93-1.833l3.777-.209,3.359,1.248,2.493,2.181,1.9-.071,2.841-.174,4.883,3.05,3.88,2.145.9,16.037-2.7,2.979c.174,2.529.067,7.1-.174,13.714-.241,6.65-.521,13.473-.762,20.4-.241,6.962-.518,13.75-.727,20.4-.312,6.65-.348,11.221-.209,13.714-.554,1.94-1.072.553-1.7-4.156-.589-4.674-1.141-6.373-1.663-5.125l1.213,22.648c-.521,1.319-1.387,5.44-2.6,12.434-1.18,7-1.734,11.466-1.628,13.335-.557,1.316-1.039,4.5-1.387,9.557s-.486,7.934-.45,8.554l-.762,3.326-.762,3.359a39.062,39.062,0,0,1-1.106,5.749,34.587,34.587,0,0,0-1.11,5.717l-.415.968-.415,1-.9.972a45,45,0,0,1-.521,7.132,50.167,50.167,0,0,0-.621,6.167l-1.766,2.007-.9,1c.035.624.277,2.979.865,7.033.553,4.086.83,6.44.865,7.029q-7.118,43.015-14.406,73.667c-4.919,20.467-11.118,38.614-18.74,54.513a203.721,203.721,0,0,1-28.365,43.671q-16.831,19.848-42.146,42.047a38.765,38.765,0,0,1-9.11,6.65q-6.39,3.686-12.364,7.306c-3.983,2.426-7.792,4.678-11.43,6.788-3.671,2.078-5.816,3.465-6.4,4.121a86.55,86.55,0,0,1-10.98,6.306c-5.543,2.805-11.395,5.678-17.526,8.519q-9.246,4.314-17.558,7.586c-5.54,2.217-9.593,3.706-12.051,4.469l-8.487.45c-.624.656-2.77,1.557-6.476,2.7a39.459,39.459,0,0,1-7.448,1.872l-45.334,2.493c-3.738.206-9.905.067-18.424-.415-8.59-.45-13.473-1.007-14.753-1.561-1.94.138-5.231-.486-10.043-1.8s-9.767-2.6-14.891-3.912c-5.164-1.248-9.736-2.631-13.924-3.951-4.192-1.348-7.238-2.249-9.143-2.805a87.509,87.509,0,0,1-7.8-4.295c-3.947-2.319-8.345-4.742-13.193-7.341-4.884-2.561-9.629-5.125-14.165-7.689-4.54-2.631-7.8-4.469-9.766-5.646l-4.955-3.983c-2.631-2.043-5.575-4.259-8.866-6.614-3.323-2.32-6.408-4.674-9.384-7.029l-6.408-5.334c-1.316.067-3.324-1.56-5.991-4.883-2.7-3.291-4.713-5.887-6.1-7.689Zm454.109,581.162-1.766,2.943-1.592,4.781-2.319,4.777c-.624,1.49-2.078,4.678-4.295,9.593-2.181,4.919-4.674,10.186-7.448,15.863q-4.155,8.469-7.444,15.448c-2.217,4.71-3.6,7.72-4.263,9.246L5085.24,5035.1l-94.375,200.7-1.284,1.833-.588,2.529c-.625,1.525-2.529,5.646-5.678,12.5s-6.408,14.2-9.905,21.991q-5.2,11.741-9.905,21.992c-3.117,6.891-4.954,11.015-5.646,12.434l-.486,1.142-.45,1.11-.865,1.419-.486,1.142-.482,1.074-.8.762-2.944.067-2.251.036c-.937.036-3.43.071-7.341.174-3.948.071-8.381.312-13.335.66-4.92.344-9.629.553-14.062.656-4.362.1-7.065-.1-8.032-.518l-8.9-28.783-2.114-1.419-1.213-2.529-.553-1.766-32.865-99.12-.9-2.181-.8-2.841-1.941-2.908-1.9-2.805-1.8-4.295-1.765-4.295-1.214-2.876-.9-1.8-1.628-1.731-1.142-3.6-18.633-41.49-4.259-5.263-4.224-5.334c-1.592-3.844-3.291-6.444-5.128-7.827-1.8-1.422-3.426-4.71-4.883-10.008l-1.245-2.149-.692-3.948-.8-3.22c-.968.032-2.078-2.355-3.358-7.136-1.177-4.78-2.217-7.9-3.082-9.316l-2.185.067c-.9-.933-1.972-3.426-3.287-7.515a208.871,208.871,0,0,1-4.954-20.467l-42.564-117.164.277-2.912-.656-.727-11.221-19.842-6.167-33.7-.206-1.422-.138-2.181.206-2.181c-.45-.45-1.454-2.979-2.944-7.483-1.49-4.536-2.6-7.93-3.359-10.352l-1.419-.66-1.387-.692-.727-3.224-.83-3.22-1.007-4.259-2.249-7.167-2.185-7.136-1.7-4.986-1.248-2.114-.45-2.908-1.73-4.607-2.632-6.408-2.7-6.025-1.142-3.568c.1-.968-.553-3.912-2.011-8.969-1.454-4.986-2.387-7.724-2.837-8.175l-2.7-5.678-2.738-5.682-1-4.259-.38-3.639-.071-3.22-.83-2.529-.348-4.295-.312-4.295c-.415-.482-1.106-2.355-1.972-5.678-.9-3.358-1.766-6.926-2.564-10.771-.865-3.777-1.592-7.345-2.252-10.7a40.263,40.263,0,0,1-.9-5.713l.45-4.366.419-4.327,3.046-1.56,4.331-3.046,3.5-2.252c1.525-1,4.362-1.351,8.487-1.039,4.05.348,6.337.521,6.82.486.45-.035,3.327-.348,8.522-1,5.125-.66,9.7-1.316,13.611-1.94l1.419.692,2.908-.138,4.33.589,4.121-1.213,3.327-.482.968,1.419.969,1.418.73-.067.76-.383.762-.38,1.11.347,1.039.277.727-.036c.45.518,2.355.83,5.749.9,3.394.138,5.3.45,5.749.9-.036.482.415,3.358,1.351,8.589.9,5.3,1.352,8.416,1.245,9.349l1.386,5.021,2.007,4.99.624,1.419.66.692,81.6,264.775,2.355,5.678,3.118,5.713q.669.728,2.6,7.171c1.28,4.295,1.9,6.962,1.8,7.93l1.244,2.114,75.05,171.088,2.287,2.841,2.319,2.841,1.213,2.873a42.957,42.957,0,0,0,5.093-7.029c2.354-3.671,4.014-5.993,5.124-7l1.766-2.944,1.8-3.706.968-2.181,23.619-52.817,1.975-1.521,1.248-1.49,1.766-2.944,1.071-3.639,1.837-3.323,2.319-5.16,2.253-4.053,1.418.691,73.84-165.442,2.422-2.284,1.422-3.291,1.521-4.053,1.663-1.869,1-2.6,1.075-3.288,1.9-4.054,1.525-.762.763-.415.762-.348,1.209-4.777,1.873-4.018q25.556-56.782,40.866-91.779,15.273-35.067,23.619-55.725c5.578-13.714,9.526-23.69,11.845-29.819,2.319-6.164,4.295-11.083,5.887-14.789s3.05-7.238,4.4-10.7a179.464,179.464,0,0,1,8.309-17l1.94-4.469,2.043-5.855.9-1.521,3.014-.071c1.454-.067,4.71-.067,9.661,0,4.884.071,11.88.071,20.747,0,8.937-.1,20.885-.379,35.812-.9l1.522-.794,1.177-.383,1.146-.415,4.884-.174-.972,5.855-2.284,4.465-3.153,5.231c-1.142,1.975-3.359,5.575-6.614,10.771a98.049,98.049,0,0,0-5.82,10.044l-.865,1.49-.968,2.217-1.873,3.741-2.7,4.812-3.362,7.724-3.394,8.139-2.7,4.5-1.419,2.912-1.454,3.706-87.136,184.04-1.11,3.671-1.106,3.671c-1.007.521-2.667,3.394-4.884,8.522q-3.378,7.74-4.99,9.246Zm491.094,344.4-4.571.543-4.543.581-5.873,1.051q-4.628.917-9.563,1.811c-3.294.631-6.379,1.245-9.211,1.777l-5.723,1.688c-4.328.152-7.781.244-10.123.338l-6.3.765-5.309,1-7.289.914-23.922-84.067,1.306.5,1.879-1.839-.84-2.166-2.891,2.268-.552-1.9,3.344-3.023-2.175-2.4-2.323,2.877-30.286-93.329-5.942-23.028-1.341-1.273-.568-1.343-1.531-3.343-2.326-1.889-.121-3.143-1.563-3-11.022-34.463a88.191,88.191,0,0,0-13.133,2.416q-8.81,2.148-26.836,4.608c-12.052,1.649-27.83,3.367-47.442,5.139-19.721,1.8-44.682,3.14-75.1,4.034l-5.465,3.383-.873,1.517-.454,1.489L5300,5063l-1.3,3.775-1.3,3.807c-1.093.524-2.316,3.191-3.84,7.917-1.418,4.736-2.43,7.355-3,7.857l-.485,3.677-2.061,3.807-.872,2.981-.841,1.52-.8.793-.55,4.365-1.424,7.382-2.19,7.378-2.09,4.5-1.674,4.851c-1.156,2.677-2.447,5.683-3.765,8.936-1.413,3.2-2.634,6.186-3.758,8.9l-1.736,5.508-1.282,3.673-2.5,7-2.18,7.272-.9,3.987c-.059.967-.923,3.532-2.568,7.691s-3.038,6.774-4.071,7.792l-1.247,3.637-2.025,3.012c-.02.97-.754,3.58-2.171,7.935s-2.353,7.255-2.944,8.732l-29.462,100.231-3.163,4.433c-.479,1-1.08,3.724-1.685,8.294-.64,4.567-1.245,7.328-1.72,8.291l-3.9,5.2-2.288.273-.71-.555-2.229-.733-3.006-1.326-1.658,2.106-1.433-1.77-2.284.238-54.025,4.833c.285.3-4.812.869-5.814-2.527l5.121-13.051c.011-.451.919-2.731,2.84-6.864,1.811-4.108,3.041-6.464,3.534-6.9,0-1.429.977-5.2,2.88-11.384,1.868-6.19,2.853-9.994,2.883-11.416l1.214-2.565,1.217-2.564,2.333-3.745,1.664-4.367c.482-1.415,1.322-4.05,2.446-7.909,1.059-3.83,2.312-7.922,3.695-12.28,1.351-4.361,2.719-8.578,4.121-12.728,1.321-4.083,2.34-7.154,2.835-9.088l.1-2.114-.75-2.749,106.742-285.054.885-3.5,1-4.323c.5-.544,1.643-3.044,3.385-7.508,1.777-4.46,2.978-7.236,3.533-8.331L5286,4916.7l-.19-4.264,60.994-161.444,35.773-89.657,2.53-2.127,2.463-2.134a16.808,16.808,0,0,1,11.922-5.07,46.046,46.046,0,0,1,13.448,1.995,46.679,46.679,0,0,1,11.154,4.91l6.088,3.7,69.672,244.592,1.706,6.633.666.686.665.689c.406.491,1.22,2.932,2.343,7.284,1.116,4.383,1.863,6.819,2.339,7.28l.665,1.071,1.3,1.757a80.927,80.927,0,0,1,1.124,8.769c.357,4.347.778,6.542,1.268,6.52l1.788,5,1.059,4.31,61.267,198.161,3.49,12.853,11.065,30.3.337-3.969.717,6.433.653,6.391-.417-1.849.385,2.195,1.216,1.507,1.724,2.353,1.659,3.077c.384.35.654,2.288.753,5.706s.157,5.337.083,5.746l3.121,1.583,1.711,5.864,1.733,5.242.512,1.231,1.215,1.122,1.872,7.1.756,5.254.3,3.123.511,1.231,3.3,5.565,2.038,5.72,1.659,2.315,3.423,3.937Zm31.78-882.355-4.553.278-8.152,1.11-8.637,1.1-4.966.294c-1.248-.047-4.764-.525-10.518-1.439-5.857-.914-12.067-1.671-18.8-2.271q-10.046-.955-19.184-2.289-9.146-1.385-10.029-1.42c-2.389-.091-8.179-.03-17.236.248-9.02.247-18.87.463-29.415.687-10.578.152-20.22.411-28.963.633-8.715.33-14.331.393-16.715.267l-21.664-.924c-.62-.024-2.6.075-5.9.227-3.265.188-7.083.356-11.284.509-4.164.119-7.947.288-11.212.476-3.332.182-5.276.25-5.863.193l-6.333-.24c-2.977-.113-6.161-.269-9.449-.429s-6.436-.244-9.447-.394l-5.432-.238a49,49,0,0,0-7.128.631c-3.623.519-7.523,1-11.665,1.463-4.212.461-8.223,1.108-12.1,1.9a40.371,40.371,0,0,1-7.635,1.13l-13.457-.578-13.495-.618-4.026-1.643-4.062-1.609c-.589-.022-2.868-.283-6.731-.809-3.9-.5-6.728-.773-8.494-.808-1.8-.1-4.675-.071-8.5.129-3.92.128-6.14.182-6.729.16l-64.261.094c.556.021.985-2.213,1.292-6.673.278-4.532.778-6.731,1.33-6.71.571-1.3,1.185-5.6,1.771-12.929.558-7.325.884-12.267.875-14.834l-2.721-84.53c-.02-1.25-.454-5.319-1.37-12.253-.881-6.894-1.315-10.967-1.268-12.211l-.035-2.809-.033-.938.9-2.773,1.732-2.706c.024-.624.138-2.8.452-6.5.245-3.735.434-6.847.424-9.307-.012-2.5-.173-5.554-.446-9.3-.346-3.69-.434-5.876-.447-6.466l-2.625-8.45c.022-.588-.008-2.6-.018-6,.026-3.4.056-6.894.022-10.6,0-3.673,0-7.208-.014-10.573s0-5.646-.017-6.861c0-1.838-.128-6.73-.451-14.678-.321-7.916-.556-16.414-.867-25.508s-.583-17.558-.874-25.437c-.33-7.774-.412-12.909-.423-15.3q0-2.7-.421-10.826c-.317-5.385-.451-11.04-.466-17,.019-5.926.128-11.6.436-16.93s.45-9.168.438-11.56l2.422-213.782L5218.44,3796l0-11.751-1.256-2.543-1.22-2.541-.015-4.2-.015-5.026c.005-1.072,0-4.713.028-10.845q-.015-9.152,0-19.133c-.025-6.62.076-12.958.409-19.011.265-6.055.436-9.619.373-10.7l-.017-4.125.014-4.954-.8-1.659-.842-2.495-.809-3.289,2.451-9.784c.517.02,1.108-1.864,1.671-5.69.488-3.793.764-6.487.792-8.15l.378-4.454.442-5.289-.388-1.644-.461-2.441.026-2.462c-.016-.519-.148-2.532-.429-6.078-.283-3.478-.543-7.577-.82-12.162-.278-4.553-.708-8.761-1.225-12.525-.549-3.765-.85-5.924-.862-6.478a172.61,172.61,0,0,1,26.915-5.116c8.629-.886,19.6-1.372,32.976-1.383q19.964-.025,51.03.583,31.121.557,82.006-.077l18.941.371c7.135.132,19.887.232,38.322.311s37.844.048,58.229-.116c20.387-.128,39.763-.188,58.024-.121s31.021-.073,38.213-.492l5.417-.313,4.6,1.317,5.872.5,5.949,2.131,1.76,2.079,1,2.877.566,2.484.532,2.444-.756,1.6.151,2.469-1.454,3.618-2.356,3.651,2.6,49.384c.05.556-1.866,1.768-5.681,3.632-3.851,1.866-6.851,3.31-9.038,4.37l-6.321-.552c-3.106-.359-6.484-.835-10.169-1.457s-7.027-1.132-10.1-1.458l-5.492-.521c-1.177-.045-3.675.035-7.565.235-3.855.2-7.95.39-12.117.577s-8.266.382-12.119.548c-3.888.232-6.143.285-6.7.264l-16.764-.323c-2.216-.049-8.041.075-17.517.446-9.442.334-19.685.811-30.83,1.393-11.113.583-21.356,1.064-30.8,1.434-9.407.335-15.269.493-17.453.445l-90.521-1.978-43.707,6.487-2.438,4.866c.013.59.037,3.6.1,9.118s0,11.854-.2,18.987q-.31,10.853-.544,21.674c-.239,7.235-.281,12.812-.254,16.7L5309.371,3874l.8,68.445,5.133,3.627L5621.967,3934l1.731.03,1.765.067a41.185,41.185,0,0,0,9.124,1.6c4.353.406,6.829.919,7.462,1.532l3.571,2.7,4.125,29.269,1.414,27.573-1.427,5.734-.673,4.933.212,3.575.1,2.673-6.816,2.481-82.043-2.593c-1.244-.047-3.777.031-7.806.226-4.062.158-8.4.476-13,.927-4.661.412-9.007.734-13.035.929-4.023.156-6.351.242-6.9.221l-11.286-.357c-1.731-.03-6.069.118-12.979.477-6.911.4-14.168.747-21.67,1.119-7.427.343-14.52.872-21.094,1.556-6.612.686-10.815.978-12.514.949-2.318-.088-7.547-.254-15.543-.522-8.1-.236-16.752-.532-25.927-.809-9.21-.278-17.83-.573-25.859-.807-8.1-.24-13.226-.4-15.507-.521-2.907-.075-9.043-.1-18.468-.111-9.461-.011-15.619.554-18.5,1.655l-5.085.709-4.293,1.64-1.221,3.939-.4,4.006q.149,12.484-.777,44.262c-.636,21.362-1.178,43.871-1.418,67.53q-.52,35.749-1.039,68.584c-.384,22-.519,37.447-.4,46.186l.158,15.011.156,13.212a69.969,69.969,0,0,0,1.406,9.515,79.533,79.533,0,0,1,1.441,9.552l16.854.675,18.654.74q75.543,1.2,127.47,1.857c34.572.445,63.193.661,85.653.611s40-.144,52.584-.256q18.933-.219,29.279-.728c6.878-.364,12.017-.652,15.317-.839a109.194,109.194,0,0,1,11.266-.023c7.13-1.6,12.315-.3,15.616,3.989,3.2,4.245,3.485,9.558.786,15.869l-7.838,58.62c.042.662-.262,3.248-.884,7.767-.725,4.547-1.033,7.134-1.022,7.759l-1.736,1.875-.866.936Zm32.827,911.318-.03-.077C5684.016,5311.926,5684.131,5311.952,5683.712,5311.975Zm341.6-44.412-2.272,2.145-3.857,2.434-3.2,2.25c-2.554.418-6.659,1.13-12.445,2.212-5.8,1.112-11.913,2.354-18.4,3.749-6.515,1.383-12.863,2.812-18.967,4.13-6.143,1.341-10.548,2.225-13.133,2.632l-1.307.184c-1.306.181-4.146.595-8.487,1.243-4.375.639-9.229,1.471-14.529,2.468-5.336,1.021-10.28,1.9-14.741,2.734-4.439.872-7.348,1.406-8.721,1.573-5.2-.159-9.187-.278-12-.36-2.854-.061-6.878-.186-12.079-.456l-4.843,1.3-8.006,1.984-8.345,1.638-4.47.867-6.869.713c-4.589.507-13.05,1.651-25.377,3.281-12.449,1.565-25.677,2.95-39.585,3.937q-21.092,1.528-40.287,1.628c-12.847.126-21.389-.01-26.637-.256a50.661,50.661,0,0,1-8.179,1.04c-3.813.288-8.032.5-12.609.694-4.333.075-8.48.2-12.4.3l-1.2-3.112-1.607.444-1.646.127c.007-1.983-.025-5.394-.035-10.228-.006-4.869.019-10.084.012-15.719-.013-5.532-.137-10.622-.41-15.237-.31-4.583-.362-7.822-.4-9.7,0-3.408-.082-9.712-.321-18.5-.21-8.712-.545-17.96-1.047-27.675-.467-9.712-.917-18.831-1.406-27.533-.459-8.668-.637-14.7-.632-18.178-.578-.922-.917-3.286-1.168-6.995-.255-3.674-.364-6.294-.333-7.751l.088-8.931c.026-2.537-.215-8.26-.634-17.377q-.68-13.625-1.3-29.436c-.462-10.513-.715-20.308-.857-29.363-.177-9.058-.243-14.8-.156-17.265-.023-.522-.014-3.652.075-9.555q.127-8.808-.138-20.152c-.176-7.563-.167-15.247-.116-23.031q.188-11.724.253-18.307c.123-4.369.195-10.484.316-18.265.086-7.781.21-15.594.329-23.339.09-7.784.18-14.485.312-20.075.056-5.557.081-8.86.134-9.828.039-1.944.192-7.425.675-16.495q.559-13.459,1.213-28.789c.444-10.184.83-19.678,1.248-28.44.383-8.729.584-14.345.664-16.734-.014-.977.079-3.508.112-7.678.1-4.094.146-8.438.22-13.021.077-4.651.127-8.995.223-13.089.062-4.1.123-6.666.141-7.6l.436-4.761.524-8.749.556-9.1.466-5.869c.044-.484.188-2.8.567-6.939.305-4.11.5-7.362.516-9.828l-.3-3.924-.3-4.689-.731-5.7c.012-.519.207-3.04.6-7.7.314-4.6.5-9.659.56-15.252.128-5.555.246-11,.344-16.279.073-5.349-.191-8.921-.674-10.877l-1.495-4.172-.72-4.311,2.859-4.606,4.4-3.212c1.028-.568,3.8-.8,8.2-.641s6.974.151,7.463.128c2.1-.156,5.163-.539,9.387-1.088,4.122-.6,6.713-1.159,7.8-1.685l3.052-.276c2.1-.121,4.91-.455,8.542-.991,3.6-.54,5.887-.853,6.938-.931l5.06-2.873,5-2.185,1.146-.383.856.146,1.048.342,2.29,1.6-.17,7.185-.1,7.851-1.645,6.563-.849,4.338-.023,2.152c.026.49-.151,2.422-.457,5.767-.342,3.341-.524,5.725-.52,7.186q-.572,33.6-1.872,67.126c-.894,22.28-1.954,45.242-3.391,68.9-.024,4.068-.118,8.13-.145,12.23l-.463,6.183c-.358,3.165-.648,6.689-.967,10.552-.286,3.905-.609,7.423-.9,10.563-.329,3.2-.48,5.241-.466,6.214q-.519,37.565-.958,75.383c-.041,5.384-.154,12.3-.268,20.773q-.129,12.766.092,25.536c.165,8.466.226,16.157.157,22.967-.039,6.884-.115,10.738-.1,11.747-.019,2.466.008,9.007.2,19.773.1,10.718.432,22.226.806,34.469q.672,18.32,1.361,34.52c.4,10.817.637,17.726.609,20.679-.05,3.193-.033,6.432-.055,9.7-.025,2.954.2,8.5.7,16.653q.713,12.165,1.416,25.554.7,13.366,1.476,24.9c.442,7.69.728,12.549.72,14.532l1.172,6.959,5.216,17.974,4.365,1.369,3.692,3.911,1.449-2.3,2.626-2.516q20.2.55,40.394.341c71.411-3.742,142.495-12.884,213.61-21.477l3.7-.14,4.44-.228,3.267.529,2.669.62.754,2.359.234,1.787C6030.018,5242,6027.676,5254.819,6025.316,5267.563Zm274.272-879.5-4.71,3.358-3.915,3.153c-3.394.553-8.866,1.592-16.519,3.188-7.653,1.557-15.757,3.426-24.311,5.5q-12.937,3.117-25.042,6.1c-8.138,2.007-13.955,3.291-17.456,3.915l-1.766.308c-1.7.28-5.54.972-11.395,1.975-5.816,1.039-12.363,2.287-19.427,3.742-7.1,1.454-13.714,2.805-19.637,4.018-5.993,1.209-9.873,1.936-11.671,2.217-7.171,0-12.71,0-16.661.032-3.912.035-9.522,0-16.76-.1l-6.444,1.663a99.5,99.5,0,0,1-10.664,2.493q-6.08,1.144-11.118,2.078c-3.429.656-5.507,1-6.1,1.074l-9.281.933c-6.27.589-17.768,1.976-34.5,3.6-16.9,1.628-34.908,2.77-54.027,3.256-19.292.45-37.855.174-55.484-.727-17.732-.9-30.2-1.975-36.919-2.6a74.951,74.951,0,0,1-10.249.521c-4.745,0-10.115-.071-15.934-.277-5.816-.245-11.324-.415-16.519-.7-5.2-.241-8.831-.553-10.909-.865l-2.114.071-2.043.035-2.114-.347c-.032-1.94-.067-5.334-.138-10.182-.067-4.884-.17-10.182-.241-15.828-.1-5.749-.348-11.015-.762-15.828-.45-4.812-.656-8.242-.692-10.253-.1-3.6-.383-9.834-.865-18.874-.521-9.04-1.213-18.736-2.078-29.021q-1.351-15.587-2.7-29.787c-.9-9.522-1.386-16.207-1.454-20.016-.727-1.146-1.316-3.742-1.766-7.9-.486-4.156-.659-7.029-.727-8.692-.071-3.327-.1-6.65-.209-9.976-.067-2.77-.589-9.348-1.49-19.739-.933-10.494-1.972-21.924-2.908-34.216-1-12.434-1.8-24.105-2.426-34.911-.692-10.877-.968-17.8-1.039-20.782,0-.589-.1-4.465-.276-11.565-.174-7.206-.518-15.448-1.107-24.8-.624-9.423-1.039-18.981-1.213-28.783-.277-9.8-.415-17.558-.588-23.1-.139-5.61-.313-13.37-.518-23.378-.28-10.044-.486-20.158-.731-30.34s-.415-18.977-.589-26.389-.277-11.742-.309-13.094c-.071-2.528-.071-9.834.067-21.889.174-12.122.174-25.141.241-39,.138-13.991.138-27.049.348-39.135.173-12.225.173-19.984.1-23.41-.031-1.351-.138-4.99-.276-10.806-.1-5.82-.277-12.019-.415-18.566-.1-6.579-.209-12.813-.415-18.736-.071-5.923-.209-9.593-.209-11.012,0-.7.138-2.944.486-6.756.312-3.844.379-8.033.312-12.64-.071-4.571,0-8.969.312-13.2.344-4.224.486-7.029.45-8.483,0-.7.067-4.089.415-10.115.277-6.025.38-10.873.312-14.477l-.727-5.99-.727-7.1-1.454-8.834c-.035-.692.032-4.5.38-11.391.24-6.894.312-14.583.138-23.034-.173-8.483-.348-16.8-.553-25-.138-8.246-.727-13.923-1.592-16.973l-2.667-7.065-1.387-6.926,4.259-6.337,6.859-3.809.312-.071.415-.068,1.039-.071,2.77.174c2.182.241,5.057.763,8.657,1.525,7.1,1.521,11.083,2.355,11.916,2.422,3.323.383,8.278.727,14.994,1.11,6.583.344,10.7.241,12.366-.348l4.951.553c3.291.383,7.863.7,13.647.936,5.713.277,9.384.486,11.048.66.8-.66,3.5-1.663,8-3.05,4.433-1.351,7.2-2.007,8-1.9l4.883,1.075,3.6,3.22c.035,3.706,0,7.412-.032,11.118v12.189c-.868,3.6-1.7,6.823-2.529,9.664l-1.212,6.44-.071,3.291c.035.727-.139,3.6-.589,8.66-.482,5.022-.692,8.586-.692,10.771-.138,33.7-.691,66.634-1.627,98.982q-1.352,47.845-3.742,97.077c0,5.646-.032,11.289-.032,16.935,0,1.351-.209,4.156-.588,8.416-.419,4.295-.8,9.04-1.214,14.3-.347,5.231-.7,9.941-1.074,14.2a77.362,77.362,0,0,0-.589,8.277q0,49.665.071,99.779c.032,6.891.032,15.792.067,26.669-.035,10.838.174,21.609.589,32.415.415,10.668.589,20.261.589,28.783.071,8.416.036,13.228.071,14.477.031,3.011.17,11.083.588,24.24.379,13.058.968,26.91,1.66,41.632.7,14.579,1.422,28.155,2.185,40.83.758,12.572,1.141,20.573,1.106,23.967.036,3.671.071,7.345.1,11.047-.067,3.362.312,9.7,1.007,18.945.657,9.214,1.419,18.771,2.111,28.747.694,9.905,1.421,19.083,2.077,27.5.7,8.448,1,13.679,1,15.86a33.369,33.369,0,0,0,1.56,7.689,34.4,34.4,0,0,0,2.529,6.926l6.129.138,6.06.174,4.089-1.94,3.011-2.77q28.572,1.2,56.9,1c99.883-3.738,196.821-23.548,291.267-44.086l5.093-.589,5.852-.762,4.607.348,3.67.589,1.489,3.114.553,1.458.175,1.039c-.66,17.835-1.281,35.809-1.941,53.818ZM4061.579,4034.634l-24.887,53.755-7.964,16.923-9.955,34.841-23.891,42.805-4.977,18.914-17.918,35.837-4.977,8.959-1,8.959-3.982,4.977-1.991,7.964-12.941,24.887-34.841-42.805-11.946-32.85-7.964-31.855-12.941-52.76-6.968-64.706-1-18.914,6.968-84.615,9.955-49.773,15.928-49.773,13.937-32.851,14.932-24.887,32.851-55.746L3978.955,3734l20.9-21.9,30.86-16.923,43.8-20.9,20.9-6.968,54.751-9.955H4167.1l15.927,2.986,30.86,8.959-16.923,38.823-1.991,19.909-11.946,28.869-21.9,40.814-9.955,17.918-8.959,18.914-9.955,13.937-31.855,87.6-17.918,46.787Zm320.541-70.678c2.137,10.77,3.982,39.819-1,66.7-11.665,62.991-8.96,59.728-19.909,134.388-1.661,11.326-6.968,24.887-10.95,43.8-2.789,13.246-12.2,23.715-26.878,41.81-18.238,22.478-33.378,41.137-58.733,60.724-11.021,8.514-43.579,32.347-93.574,47.783-12.972,4.005-71.674,15.928-123.438,4.977,0,0,19.909-53.755,32.851-85.61,9.768-24.044,36.832-104.524,36.832-104.524.8-.486,2.986-2.986,3.982-2.986.326,0,.1-1.974,1-4.977,1.846-6.178,5.293-16.1,5.973-17.918,2.986-7.964,14.932-37.828,22.9-58.733,5.5-14.447,15.245-38.237,32.851-86.606,16.8-46.143,23.891-59.728,27.873-72.669,3.9-12.681,11.082-29.176,13.937-35.837,2.987-6.968,8.21-14.429,8.959-15.927,1-1.991,8.931-19.944,28.869-66.7,27.135-63.631,25.1-53.578,26.878-60.724l6.968-15.927c1.991,1.991,29.756,43.712,31.855,48.778,9.285,22.4,9.759,21.053,12.941,34.841,2.986,12.941,14.932,25.882,15.927,34.841.288,2.591,1.2,5.316,1.991,10.95,1.078,7.688,4.74,12.8,4.977,14.932,1,8.959,5.973,29.864,8.959,45.792C4378.209,3946.744,4378.266,3944.535,4382.12,3963.955ZM5447.834,4967.677c.739,3.617,1.313,5.652,1.789,6.117-3.991.284-14.865,1.594-32.8,4.011-18.065,2.369-45.73,3.561-83.33,3.538l-7.524-3.247,33.334-82.577,1.756-3.141,34.6-95.3,11.718,38.116,3.273,9.245.926,3.079,1.736,3.016.729,1.112-.11,1.172L5427.02,4899c2.394,1.9,4.448,6.68,6.227,14.431a145.587,145.587,0,0,0,7.7,23.927q2.961,11.756,4.368,18.289C5446.224,4960.01,5447.027,4964.053,5447.834,4967.677Z" transform="translate(-13.985 1)"/></svg>