<?xml version="1.0" encoding="utf-8"?>
<!-- Generator: Adobe Illustrator 21.1.0, SVG Export Plug-In . SVG Version: 6.00 Build 0)  -->
<svg version="1.1" id="Ebene_1" xmlns="http://www.w3.org/2000/svg" xmlns:xlink="http://www.w3.org/1999/xlink" x="0px" y="0px"
	 viewBox="0 0 131.2 127.2" style="enable-background:new 0 0 131.2 127.2;" xml:space="preserve">
<style type="text/css">
	.st0{fill:#89EAC9;}
</style>
<g>
	<g>
		<path class="st0" d="M123.8,10.2l-19.1,107H82.4l-19.1-107h17.5l12.8,81.6h0.3l12.7-81.6H123.8 M130.9,4.2h-7.2h-17.2h-5.1
			l-0.8,5.1L93.7,54l-7-44.6l-0.8-5.1h-5.1H63.3h-7.2l1.3,7.1l19.1,107l0.9,4.9h5h22.2h5l0.9-4.9l19.1-107L130.9,4.2L130.9,4.2z"/>
	</g>
	<g>
		<path class="st0" d="M56.8,7v14.3l-31.6,83.4h31.6v15.9H6.5v-14.3l31.6-83.4h-30V7H56.8 M62.8,1h-6H8.1h-6v6v15.9v6h6h21.3
			L0.9,104.1l-0.4,1v1.1v14.3v6h6h50.3h6v-6v-15.9v-6h-6H33.8l28.5-75.2l0.4-1v-1.1V7V1L62.8,1z"/>
	</g>
</g>
</svg>
