<?xml version="1.0" encoding="iso-8859-1"?>
<!-- Generator: Adobe Illustrator 21.1.0, SVG Export Plug-In . SVG Version: 6.00 Build 0)  -->
<svg version="1.1" id="Ebene_1" xmlns="http://www.w3.org/2000/svg" xmlns:xlink="http://www.w3.org/1999/xlink" x="0px" y="0px"
	 viewBox="0 0 128.9 128.9" style="enable-background:new 0 0 128.9 128.9;" xml:space="preserve">
<circle style="fill:#FF4D4D;" cx="64.8" cy="64.5" r="64.5"/>
<path style="fill:#FFFFFF;" d="M5.31,64.363c0.517,0,0.861-0.172,1.378-0.172l0,0h0.344c3.1-0.861,6.372-3.1,8.783-5.166
	c1.55-1.205,3.616-2.239,4.994-3.444c3.272-3.1,9.816-4.822,14.121-5.338c6.888-0.861,12.055,3.789,17.221,7.577
	c1.894,1.378,3.616,3.272,5.338,4.994c0.689,0.689,1.55,1.55,2.411,2.411c0.861-0.344,1.722-0.517,2.411-0.517
	c0.689,0,1.55-0.172,2.411-0.344c1.722-3.272,4.133-6.544,6.372-9.127c3.789-4.477,6.888-7.061,12.916-7.405
	c0.861,0,1.722,0,2.583,0c2.411,0,4.822-0.344,6.888,0.172c0.517,0,1.033-0.172,1.55,0c1.205,0.344,2.411,1.033,3.616,1.378
	c2.928,0.861,5.683,2.067,8.61,3.272c3.1,1.205,6.2,1.722,9.472,2.239c0.344,0,0.689-0.172,1.033-0.172l0.172-0.172h0.172
	c-0.172,0.689-0.689,1.205-1.033,1.55l0,0c-1.378,2.067-6.544,2.583-8.61,2.928c-6.2,0.689-11.882-0.517-17.738-1.722
	c-2.411-0.517-4.822-1.378-7.061-2.067c-3.444-1.205-5.511,0.689-8.266,2.755c-2.411,1.722-4.133,3.961-6.027,6.2
	c-0.172,0.172-0.344,0.344-0.344,0.517c0.861,0.172,1.55,0.517,2.067,1.033c3.444,3.789,6.716,3.616,11.538,3.444l0.344,0.172l0,0
	c0.344,0,0.689,0.172,0.861,0.344l0,0l0.172,0.344l-0.172,0.172l-0.172,0.172l-0.172,0.172c-0.861,0.861-2.239,1.378-3.272,2.067
	c-2.411,1.55-3.961,2.928-7.061,3.444c-5.683,0.861-13.605,2.067-18.771-1.378c-1.033-0.689-2.239-1.378-1.894-2.755
	c0.172-0.344,0.517-0.689,0.861-0.861c0.344,0,0.689-0.172,0.861-0.344c0.344-0.344,0.861-0.861,1.378-1.033
	c0.517-0.689,0.861-1.55,1.378-2.583l0.172-0.344c-0.344-0.344-0.689-0.689-1.033-1.033c-2.411-2.067-4.65-4.133-7.577-5.511
	c-3.272-1.55-6.544-2.067-9.472,0.344c-1.722,1.378-3.1,3.616-5.511,4.477c-4.822,1.55-10.677,2.583-15.671,2.583
	c-0.689,0-1.378,0-2.067,0c-1.378,0.344-2.583,0.344-3.961,0c-0.517-0.172-1.033-0.344-1.378-0.517
	c-0.517,0-0.861-0.172-1.378-0.517c-0.172,0-0.517-0.172-0.689-0.172c-0.689-0.172-1.205-0.689-1.722-1.033
	c-0.517-0.172-0.861-0.344-1.378-0.689C4.966,64.88,4.966,64.536,5.31,64.363L5.31,64.363z"/>
</svg>
