<?xml version="1.0" encoding="UTF-8" standalone="no"?>
<!DOCTYPE svg PUBLIC "-//W3C//DTD SVG 1.1//EN"
 "http://www.w3.org/Graphics/SVG/1.1/DTD/svg11.dtd">
<!-- Generated by graphviz version 2.40.1 (20161225.0304)
 -->
<!-- Title: models_diagram Pages: 1 -->
<svg width="709pt" height="424pt"
 viewBox="0.00 0.00 708.50 424.00" xmlns="http://www.w3.org/2000/svg" xmlns:xlink="http://www.w3.org/1999/xlink">
<g id="graph0" class="graph" transform="scale(1 1) rotate(0) translate(36 388)">
<title>models_diagram</title>
<polygon fill="#ffffff" stroke="transparent" points="-36,36 -36,-388 672.5,-388 672.5,36 -36,36"/>
<!-- appointment -->
<g id="node1" class="node">
<title>appointment</title>
<polygon fill="#add8e6" stroke="transparent" points=".5,-330 .5,-352 115.5,-352 115.5,-330 .5,-330"/>
<polygon fill="none" stroke="#000000" points=".5,-330 .5,-352 115.5,-352 115.5,-330 .5,-330"/>
<text text-anchor="start" x="33.003" y="-339" font-family="Times,serif" font-weight="bold" font-size="10.00" fill="#000000">appointment</text>
<polygon fill="none" stroke="#000000" points=".5,-308 .5,-330 115.5,-330 115.5,-308 .5,-308"/>
<text text-anchor="start" x="5.5" y="-317" font-family="Times,serif" text-decoration="underline" font-size="10.00" fill="#000000">id</text>
<text text-anchor="start" x="13.279" y="-317" font-family="Times,serif" font-size="10.00" fill="#000000">: NUMBER</text>
<polygon fill="none" stroke="#000000" points=".5,-286 .5,-308 115.5,-308 115.5,-286 .5,-286"/>
<text text-anchor="start" x="5.5" y="-294" font-family="Times,serif" font-size="10.00" fill="#000000">name: TEXT</text>
<polygon fill="none" stroke="#000000" points=".5,-264 .5,-286 115.5,-286 115.5,-264 .5,-264"/>
<text text-anchor="start" x="5.5" y="-272" font-family="Times,serif" font-size="10.00" fill="#000000">start: NUMBER</text>
<polygon fill="none" stroke="#000000" points=".5,-242 .5,-264 115.5,-264 115.5,-242 .5,-242"/>
<text text-anchor="start" x="5.5" y="-250" font-family="Times,serif" font-size="10.00" fill="#000000">end: NUMBER</text>
<polygon fill="none" stroke="#000000" points=".5,-220 .5,-242 115.5,-242 115.5,-220 .5,-220"/>
<text text-anchor="start" x="5.5" y="-228" font-family="Times,serif" font-size="10.00" fill="#000000">color: STRING</text>
<polygon fill="none" stroke="#000000" points=".5,-198 .5,-220 115.5,-220 115.5,-198 .5,-198"/>
<text text-anchor="start" x="5.5" y="-206" font-family="Times,serif" font-size="10.00" fill="#000000">timed: BOOLEAN</text>
<polygon fill="none" stroke="#000000" points=".5,-176 .5,-198 115.5,-198 115.5,-176 .5,-176"/>
<text text-anchor="start" x="5.5" y="-184" font-family="Times,serif" font-size="10.00" fill="#000000">isVirtual: BOOLEAN</text>
<polygon fill="none" stroke="#000000" points=".5,-154 .5,-176 115.5,-176 115.5,-154 .5,-154"/>
<text text-anchor="start" x="5.5" y="-162" font-family="Times,serif" font-size="10.00" fill="#000000">parentId: NUMBER</text>
<polygon fill="none" stroke="#000000" points=".5,-132 .5,-154 115.5,-154 115.5,-132 .5,-132"/>
<text text-anchor="start" x="5.5" y="-140" font-family="Times,serif" font-size="10.00" fill="#000000">repeatation: STRING</text>
<polygon fill="none" stroke="#000000" points=".5,-110 .5,-132 115.5,-132 115.5,-110 .5,-110"/>
<text text-anchor="start" x="5.099" y="-118" font-family="Times,serif" font-size="10.00" fill="#000000">attachedPersons: STRING</text>
<polygon fill="none" stroke="#000000" points=".5,-88 .5,-110 115.5,-110 115.5,-88 .5,-88"/>
<text text-anchor="start" x="5.5" y="-96" font-family="Times,serif" font-size="10.00" fill="#000000">modified: STRING</text>
<polygon fill="none" stroke="#000000" points=".5,-66 .5,-88 115.5,-88 115.5,-66 .5,-66"/>
<text text-anchor="start" x="5.5" y="-74" font-family="Times,serif" font-size="10.00" fill="#000000">description: STRING</text>
<polygon fill="none" stroke="#000000" points=".5,-44 .5,-66 115.5,-66 115.5,-44 .5,-44"/>
<text text-anchor="start" x="5.5" y="-52" font-family="Times,serif" font-size="10.00" fill="#000000">createdAt: DATE</text>
<polygon fill="none" stroke="#000000" points=".5,-22 .5,-44 115.5,-44 115.5,-22 .5,-22"/>
<text text-anchor="start" x="5.5" y="-30" font-family="Times,serif" font-size="10.00" fill="#000000">updatedAt: DATE</text>
<polygon fill="none" stroke="#000000" points=".5,0 .5,-22 115.5,-22 115.5,0 .5,0"/>
<text text-anchor="start" x="5.5" y="-9" font-family="Times,serif" font-style="italic" text-decoration="underline" font-size="10.00" fill="#000000">calendarId</text>
<text text-anchor="start" x="47.693" y="-9" font-family="Times,serif" font-size="10.00" fill="#000000">: NUMBER</text>
</g>
<!-- calendar -->
<g id="node2" class="node">
<title>calendar</title>
<polygon fill="#add8e6" stroke="transparent" points="330.5,-220 330.5,-242 413.5,-242 413.5,-220 330.5,-220"/>
<polygon fill="none" stroke="#000000" points="330.5,-220 330.5,-242 413.5,-242 413.5,-220 330.5,-220"/>
<text text-anchor="start" x="355.068" y="-229" font-family="Times,serif" font-weight="bold" font-size="10.00" fill="#000000">calendar</text>
<polygon fill="none" stroke="#000000" points="330.5,-198 330.5,-220 413.5,-220 413.5,-198 330.5,-198"/>
<text text-anchor="start" x="335.5" y="-207" font-family="Times,serif" text-decoration="underline" font-size="10.00" fill="#000000">id</text>
<text text-anchor="start" x="343.279" y="-207" font-family="Times,serif" font-size="10.00" fill="#000000">: NUMBER</text>
<polygon fill="none" stroke="#000000" points="330.5,-176 330.5,-198 413.5,-198 413.5,-176 330.5,-176"/>
<text text-anchor="start" x="335.5" y="-184" font-family="Times,serif" font-size="10.00" fill="#000000">slug: UUID</text>
<polygon fill="none" stroke="#000000" points="330.5,-154 330.5,-176 413.5,-176 413.5,-154 330.5,-154"/>
<text text-anchor="start" x="335.5" y="-162" font-family="Times,serif" font-size="10.00" fill="#000000">name: STRING</text>
<polygon fill="none" stroke="#000000" points="330.5,-132 330.5,-154 413.5,-154 413.5,-132 330.5,-132"/>
<text text-anchor="start" x="335.5" y="-140" font-family="Times,serif" font-size="10.00" fill="#000000">createdAt: DATE</text>
<polygon fill="none" stroke="#000000" points="330.5,-110 330.5,-132 413.5,-132 413.5,-110 330.5,-110"/>
<text text-anchor="start" x="335.205" y="-118" font-family="Times,serif" font-size="10.00" fill="#000000">updatedAt: DATE</text>
</g>
<!-- appointment&#45;&gt;calendar -->
<g id="edge1" class="edge">
<title>appointment&#45;&gt;calendar</title>
<path fill="none" stroke="#000000" stroke-width=".75" d="M121.3965,-176C183.6609,-176 276.5111,-176 329.8184,-176"/>
<polygon fill="#000000" stroke="#000000" stroke-width=".75" points="121.0924,-176.0001 115.0925,-173.3 118.0924,-176 115.0924,-176 115.0924,-176 115.0924,-176 118.0924,-176 115.0924,-178.7 121.0924,-176.0001 121.0924,-176.0001"/>
</g>
<!-- user -->
<g id="node3" class="node">
<title>user</title>
<polygon fill="#add8e6" stroke="transparent" points="536.5,-231 536.5,-253 636.5,-253 636.5,-231 536.5,-231"/>
<polygon fill="none" stroke="#000000" points="536.5,-231 536.5,-253 636.5,-253 636.5,-231 536.5,-231"/>
<text text-anchor="start" x="578.1715" y="-240" font-family="Times,serif" font-weight="bold" font-size="10.00" fill="#000000">user</text>
<polygon fill="none" stroke="#000000" points="536.5,-209 536.5,-231 636.5,-231 636.5,-209 536.5,-209"/>
<text text-anchor="start" x="541.5" y="-218" font-family="Times,serif" text-decoration="underline" font-size="10.00" fill="#000000">id</text>
<text text-anchor="start" x="549.279" y="-218" font-family="Times,serif" font-size="10.00" fill="#000000">: NUMBER</text>
<polygon fill="none" stroke="#000000" points="536.5,-187 536.5,-209 636.5,-209 636.5,-187 536.5,-187"/>
<text text-anchor="start" x="541.5" y="-195" font-family="Times,serif" font-size="10.00" fill="#000000">name: STRING</text>
<polygon fill="none" stroke="#000000" points="536.5,-165 536.5,-187 636.5,-187 636.5,-165 536.5,-165"/>
<text text-anchor="start" x="541.5" y="-173" font-family="Times,serif" font-size="10.00" fill="#000000">email: STRING</text>
<polygon fill="none" stroke="#000000" points="536.5,-143 536.5,-165 636.5,-165 636.5,-143 536.5,-143"/>
<text text-anchor="start" x="541.5" y="-151" font-family="Times,serif" font-size="10.00" fill="#000000">createdAt: DATE</text>
<polygon fill="none" stroke="#000000" points="536.5,-121 536.5,-143 636.5,-143 636.5,-121 536.5,-121"/>
<text text-anchor="start" x="541.5" y="-129" font-family="Times,serif" font-size="10.00" fill="#000000">updatedAt: DATE</text>
<polygon fill="none" stroke="#000000" points="536.5,-99 536.5,-121 636.5,-121 636.5,-99 536.5,-99"/>
<text text-anchor="start" x="541.377" y="-108" font-family="Times,serif" font-style="italic" text-decoration="underline" font-size="10.00" fill="#000000">calendarId</text>
<text text-anchor="start" x="583.57" y="-108" font-family="Times,serif" font-size="10.00" fill="#000000">: NUMBER</text>
</g>
<!-- user&#45;&gt;calendar -->
<g id="edge2" class="edge">
<title>user&#45;&gt;calendar</title>
<path fill="none" stroke="#000000" stroke-width=".75" d="M530.1021,-176C493.3991,-176 446.3387,-176 413.0407,-176"/>
<polygon fill="#000000" stroke="#000000" stroke-width=".75" points="530.3634,-176.0001 536.3634,-178.7 533.3634,-176 536.3634,-176 536.3634,-176 536.3634,-176 533.3634,-176 536.3634,-173.3 530.3634,-176.0001 530.3634,-176.0001"/>
</g>
</g>
</svg>
