<?xml version="1.0" encoding="UTF-8" standalone="no"?>
<!DOCTYPE svg PUBLIC "-//W3C//DTD SVG 1.1//EN"
 "http://www.w3.org/Graphics/SVG/1.1/DTD/svg11.dtd">
<!-- Generated by graphviz version 2.40.1 (20161225.0304)
 -->
<!-- Title: models_diagram Pages: 1 -->
<svg width="992pt" height="314pt"
 viewBox="0.00 0.00 991.50 314.00" xmlns="http://www.w3.org/2000/svg" xmlns:xlink="http://www.w3.org/1999/xlink">
<g id="graph0" class="graph" transform="scale(1 1) rotate(0) translate(36 278)">
<title>models_diagram</title>
<polygon fill="#ffffff" stroke="transparent" points="-36,36 -36,-278 955.5,-278 955.5,36 -36,36"/>
<!-- shift -->
<g id="node1" class="node">
<title>shift</title>
<polygon fill="#add8e6" stroke="transparent" points="457.5,-187 457.5,-209 555.5,-209 555.5,-187 457.5,-187"/>
<polygon fill="none" stroke="#000000" points="457.5,-187 457.5,-209 555.5,-209 555.5,-187 457.5,-187"/>
<text text-anchor="start" x="497.612" y="-196" font-family="Times,serif" font-weight="bold" font-size="10.00" fill="#000000">shift</text>
<polygon fill="none" stroke="#000000" points="457.5,-165 457.5,-187 555.5,-187 555.5,-165 457.5,-165"/>
<text text-anchor="start" x="462.5" y="-174" font-family="Times,serif" text-decoration="underline" font-size="10.00" fill="#000000">id</text>
<text text-anchor="start" x="470.279" y="-174" font-family="Times,serif" font-size="10.00" fill="#000000">: NUMBER</text>
<polygon fill="none" stroke="#000000" points="457.5,-143 457.5,-165 555.5,-165 555.5,-143 457.5,-143"/>
<text text-anchor="start" x="462.5" y="-151" font-family="Times,serif" font-size="10.00" fill="#000000">start: DATE</text>
<polygon fill="none" stroke="#000000" points="457.5,-121 457.5,-143 555.5,-143 555.5,-121 457.5,-121"/>
<text text-anchor="start" x="462.5" y="-129" font-family="Times,serif" font-size="10.00" fill="#000000">end: DATE</text>
<polygon fill="none" stroke="#000000" points="457.5,-99 457.5,-121 555.5,-121 555.5,-99 457.5,-99"/>
<text text-anchor="start" x="462.5" y="-107" font-family="Times,serif" font-size="10.00" fill="#000000">type: STRING</text>
<polygon fill="none" stroke="#000000" points="457.5,-77 457.5,-99 555.5,-99 555.5,-77 457.5,-77"/>
<text text-anchor="start" x="462.5" y="-85" font-family="Times,serif" font-size="10.00" fill="#000000">createdAt: DATE</text>
<polygon fill="none" stroke="#000000" points="457.5,-55 457.5,-77 555.5,-77 555.5,-55 457.5,-55"/>
<text text-anchor="start" x="462.5" y="-63" font-family="Times,serif" font-size="10.00" fill="#000000">updatedAt: DATE</text>
<polygon fill="none" stroke="#000000" points="457.5,-33 457.5,-55 555.5,-55 555.5,-33 457.5,-33"/>
<text text-anchor="start" x="462.2015" y="-42" font-family="Times,serif" font-style="italic" text-decoration="underline" font-size="10.00" fill="#000000">locationId</text>
<text text-anchor="start" x="502.7455" y="-42" font-family="Times,serif" font-size="10.00" fill="#000000">: NUMBER</text>
</g>
<!-- location -->
<g id="node2" class="node">
<title>location</title>
<polygon fill="#add8e6" stroke="transparent" points="837,-165 837,-187 920,-187 920,-165 837,-165"/>
<polygon fill="none" stroke="#000000" points="837,-165 837,-187 920,-187 920,-165 837,-165"/>
<text text-anchor="start" x="862.3925" y="-174" font-family="Times,serif" font-weight="bold" font-size="10.00" fill="#000000">location</text>
<polygon fill="none" stroke="#000000" points="837,-143 837,-165 920,-165 920,-143 837,-143"/>
<text text-anchor="start" x="842" y="-152" font-family="Times,serif" text-decoration="underline" font-size="10.00" fill="#000000">id</text>
<text text-anchor="start" x="849.779" y="-152" font-family="Times,serif" font-size="10.00" fill="#000000">: NUMBER</text>
<polygon fill="none" stroke="#000000" points="837,-121 837,-143 920,-143 920,-121 837,-121"/>
<text text-anchor="start" x="842" y="-129" font-family="Times,serif" font-size="10.00" fill="#000000">slug: UUID</text>
<polygon fill="none" stroke="#000000" points="837,-99 837,-121 920,-121 920,-99 837,-99"/>
<text text-anchor="start" x="842" y="-107" font-family="Times,serif" font-size="10.00" fill="#000000">name: STRING</text>
<polygon fill="none" stroke="#000000" points="837,-77 837,-99 920,-99 920,-77 837,-77"/>
<text text-anchor="start" x="842" y="-85" font-family="Times,serif" font-size="10.00" fill="#000000">createdAt: DATE</text>
<polygon fill="none" stroke="#000000" points="837,-55 837,-77 920,-77 920,-55 837,-55"/>
<text text-anchor="start" x="841.705" y="-63" font-family="Times,serif" font-size="10.00" fill="#000000">updatedAt: DATE</text>
</g>
<!-- shift&#45;&gt;location -->
<g id="edge3" class="edge">
<title>shift&#45;&gt;location</title>
<path fill="none" stroke="#000000" stroke-width=".75" d="M562.0287,-121C637.1387,-121 769.4141,-121 836.4908,-121"/>
<polygon fill="#000000" stroke="#000000" stroke-width=".75" points="561.8323,-121.0001 555.8324,-118.3 558.8323,-121 555.8323,-121 555.8323,-121 555.8323,-121 558.8323,-121 555.8323,-123.7 561.8323,-121.0001 561.8323,-121.0001"/>
</g>
<!-- shift_user -->
<g id="node4" class="node">
<title>shift_user</title>
<polygon fill="#add8e6" stroke="transparent" points="238,-143 238,-165 347,-165 347,-143 238,-143"/>
<polygon fill="none" stroke="#000000" points="238,-143 238,-165 347,-165 347,-143 238,-143"/>
<text text-anchor="start" x="272.7835" y="-152" font-family="Times,serif" font-weight="bold" font-size="10.00" fill="#000000">shift_user</text>
<polygon fill="none" stroke="#000000" points="238,-121 238,-143 347,-143 347,-121 238,-121"/>
<text text-anchor="start" x="242.6585" y="-129" font-family="Times,serif" font-size="10.00" fill="#000000">selfGranted: BOOLEAN</text>
<polygon fill="none" stroke="#000000" points="238,-99 238,-121 347,-121 347,-99 238,-99"/>
<text text-anchor="start" x="243" y="-108" font-family="Times,serif" text-decoration="underline" font-size="10.00" fill="#000000">userId</text>
<text text-anchor="start" x="267.986" y="-108" font-family="Times,serif" font-size="10.00" fill="#000000">: NUMBER</text>
<polygon fill="none" stroke="#000000" points="238,-77 238,-99 347,-99 347,-77 238,-77"/>
<text text-anchor="start" x="243" y="-86" font-family="Times,serif" text-decoration="underline" font-size="10.00" fill="#000000">shiftId</text>
<text text-anchor="start" x="269.105" y="-86" font-family="Times,serif" font-size="10.00" fill="#000000">: NUMBER</text>
</g>
<!-- shift&#45;&gt;shift_user -->
<g id="edge1" class="edge">
<title>shift&#45;&gt;shift_user</title>
<path fill="none" stroke="#000000" stroke-width=".75" d="M457.2894,-121C426.2,-121 385.7994,-121 352.7227,-121"/>
<polygon fill="#000000" stroke="#000000" stroke-width=".75" points="352.6357,-121.0001 346.6358,-118.3 349.6357,-121 346.6357,-121 346.6357,-121 346.6357,-121 349.6357,-121 346.6357,-123.7 352.6357,-121.0001 352.6357,-121.0001"/>
</g>
<!-- user -->
<g id="node3" class="node">
<title>user</title>
<polygon fill="#add8e6" stroke="transparent" points=".5,-220 .5,-242 89.5,-242 89.5,-220 .5,-220"/>
<polygon fill="none" stroke="#000000" points=".5,-220 .5,-242 89.5,-242 89.5,-220 .5,-220"/>
<text text-anchor="start" x="36.6715" y="-229" font-family="Times,serif" font-weight="bold" font-size="10.00" fill="#000000">user</text>
<polygon fill="none" stroke="#000000" points=".5,-198 .5,-220 89.5,-220 89.5,-198 .5,-198"/>
<text text-anchor="start" x="5.5" y="-207" font-family="Times,serif" text-decoration="underline" font-size="10.00" fill="#000000">id</text>
<text text-anchor="start" x="13.279" y="-207" font-family="Times,serif" font-size="10.00" fill="#000000">: NUMBER</text>
<polygon fill="none" stroke="#000000" points=".5,-176 .5,-198 89.5,-198 89.5,-176 .5,-176"/>
<text text-anchor="start" x="5.5" y="-184" font-family="Times,serif" font-size="10.00" fill="#000000">surname: STRING</text>
<polygon fill="none" stroke="#000000" points=".5,-154 .5,-176 89.5,-176 89.5,-154 .5,-154"/>
<text text-anchor="start" x="5.5" y="-162" font-family="Times,serif" font-size="10.00" fill="#000000">lastname: STRING</text>
<polygon fill="none" stroke="#000000" points=".5,-132 .5,-154 89.5,-154 89.5,-132 .5,-132"/>
<text text-anchor="start" x="5.426" y="-140" font-family="Times,serif" font-size="10.00" fill="#000000">password: STRING</text>
<polygon fill="none" stroke="#000000" points=".5,-110 .5,-132 89.5,-132 89.5,-110 .5,-110"/>
<text text-anchor="start" x="5.5" y="-118" font-family="Times,serif" font-size="10.00" fill="#000000">email: STRING</text>
<polygon fill="none" stroke="#000000" points=".5,-88 .5,-110 89.5,-110 89.5,-88 .5,-88"/>
<text text-anchor="start" x="5.5" y="-96" font-family="Times,serif" font-size="10.00" fill="#000000">phone: STRING</text>
<polygon fill="none" stroke="#000000" points=".5,-66 .5,-88 89.5,-88 89.5,-66 .5,-66"/>
<text text-anchor="start" x="5.5" y="-74" font-family="Times,serif" font-size="10.00" fill="#000000">role: STRING</text>
<polygon fill="none" stroke="#000000" points=".5,-44 .5,-66 89.5,-66 89.5,-44 .5,-44"/>
<text text-anchor="start" x="5.5" y="-52" font-family="Times,serif" font-size="10.00" fill="#000000">type: STRING</text>
<polygon fill="none" stroke="#000000" points=".5,-22 .5,-44 89.5,-44 89.5,-22 .5,-22"/>
<text text-anchor="start" x="5.5" y="-30" font-family="Times,serif" font-size="10.00" fill="#000000">createdAt: DATE</text>
<polygon fill="none" stroke="#000000" points=".5,0 .5,-22 89.5,-22 89.5,0 .5,0"/>
<text text-anchor="start" x="5.5" y="-8" font-family="Times,serif" font-size="10.00" fill="#000000">updatedAt: DATE</text>
</g>
<!-- user&#45;&gt;shift_user -->
<g id="edge2" class="edge">
<title>user&#45;&gt;shift_user</title>
<path fill="none" stroke="#000000" stroke-width=".75" d="M89.0339,-121C128.7774,-121 187.3269,-121 231.3406,-121"/>
<polygon fill="#000000" stroke="#000000" stroke-width=".75" points="231.4511,-121.0001 237.4512,-123.7 234.4511,-121 237.4511,-121 237.4511,-121 237.4511,-121 234.4511,-121 237.4511,-118.3 231.4511,-121.0001 231.4511,-121.0001"/>
</g>
</g>
</svg>
