<?xml version="1.0" encoding="UTF-8" standalone="no"?>
<!DOCTYPE svg PUBLIC "-//W3C//DTD SVG 1.1//EN"
 "http://www.w3.org/Graphics/SVG/1.1/DTD/svg11.dtd">
<!-- Generated by graphviz version 2.40.1 (20161225.0304)
 -->
<!-- Title: models_diagram Pages: 1 -->
<svg width="742pt" height="314pt"
 viewBox="0.00 0.00 742.00 314.00" xmlns="http://www.w3.org/2000/svg" xmlns:xlink="http://www.w3.org/1999/xlink">
<g id="graph0" class="graph" transform="scale(1 1) rotate(0) translate(36 278)">
<title>models_diagram</title>
<polygon fill="#ffffff" stroke="transparent" points="-36,36 -36,-278 706,-278 706,36 -36,36"/>
<!-- shift -->
<g id="node1" class="node">
<title>shift</title>
<polygon fill="#add8e6" stroke="transparent" points="295.5,-198 295.5,-220 378.5,-220 378.5,-198 295.5,-198"/>
<polygon fill="none" stroke="#000000" points="295.5,-198 295.5,-220 378.5,-220 378.5,-198 295.5,-198"/>
<text text-anchor="start" x="328.112" y="-207" font-family="Times,serif" font-weight="bold" font-size="10.00" fill="#000000">shift</text>
<polygon fill="none" stroke="#000000" points="295.5,-176 295.5,-198 378.5,-198 378.5,-176 295.5,-176"/>
<text text-anchor="start" x="300.5" y="-185" font-family="Times,serif" text-decoration="underline" font-size="10.00" fill="#000000">id</text>
<text text-anchor="start" x="308.279" y="-185" font-family="Times,serif" font-size="10.00" fill="#000000">: NUMBER</text>
<polygon fill="none" stroke="#000000" points="295.5,-154 295.5,-176 378.5,-176 378.5,-154 295.5,-154"/>
<text text-anchor="start" x="300.5" y="-162" font-family="Times,serif" font-size="10.00" fill="#000000">start: DATE</text>
<polygon fill="none" stroke="#000000" points="295.5,-132 295.5,-154 378.5,-154 378.5,-132 295.5,-132"/>
<text text-anchor="start" x="300.5" y="-140" font-family="Times,serif" font-size="10.00" fill="#000000">end: DATE</text>
<polygon fill="none" stroke="#000000" points="295.5,-110 295.5,-132 378.5,-132 378.5,-110 295.5,-110"/>
<text text-anchor="start" x="300.5" y="-118" font-family="Times,serif" font-size="10.00" fill="#000000">type: STRING</text>
<polygon fill="none" stroke="#000000" points="295.5,-88 295.5,-110 378.5,-110 378.5,-88 295.5,-88"/>
<text text-anchor="start" x="300.5" y="-96" font-family="Times,serif" font-size="10.00" fill="#000000">createdAt: DATE</text>
<polygon fill="none" stroke="#000000" points="295.5,-66 295.5,-88 378.5,-88 378.5,-66 295.5,-66"/>
<text text-anchor="start" x="300.205" y="-74" font-family="Times,serif" font-size="10.00" fill="#000000">updatedAt: DATE</text>
<polygon fill="none" stroke="#000000" points="295.5,-44 295.5,-66 378.5,-66 378.5,-44 295.5,-44"/>
<text text-anchor="start" x="300.5" y="-53" font-family="Times,serif" font-style="italic" text-decoration="underline" font-size="10.00" fill="#000000">jobId</text>
<text text-anchor="start" x="321.608" y="-53" font-family="Times,serif" font-size="10.00" fill="#000000">: NUMBER</text>
<polygon fill="none" stroke="#000000" points="295.5,-22 295.5,-44 378.5,-44 378.5,-22 295.5,-22"/>
<text text-anchor="start" x="300.4805" y="-31" font-family="Times,serif" font-style="italic" text-decoration="underline" font-size="10.00" fill="#000000">userId</text>
<text text-anchor="start" x="325.4665" y="-31" font-family="Times,serif" font-size="10.00" fill="#000000">: NUMBER</text>
</g>
<!-- job -->
<g id="node2" class="node">
<title>job</title>
<polygon fill="#add8e6" stroke="transparent" points="587.5,-165 587.5,-187 670.5,-187 670.5,-165 587.5,-165"/>
<polygon fill="none" stroke="#000000" points="587.5,-165 587.5,-187 670.5,-187 670.5,-165 587.5,-165"/>
<text text-anchor="start" x="622.6105" y="-174" font-family="Times,serif" font-weight="bold" font-size="10.00" fill="#000000">job</text>
<polygon fill="none" stroke="#000000" points="587.5,-143 587.5,-165 670.5,-165 670.5,-143 587.5,-143"/>
<text text-anchor="start" x="592.5" y="-152" font-family="Times,serif" text-decoration="underline" font-size="10.00" fill="#000000">id</text>
<text text-anchor="start" x="600.279" y="-152" font-family="Times,serif" font-size="10.00" fill="#000000">: NUMBER</text>
<polygon fill="none" stroke="#000000" points="587.5,-121 587.5,-143 670.5,-143 670.5,-121 587.5,-121"/>
<text text-anchor="start" x="592.5" y="-129" font-family="Times,serif" font-size="10.00" fill="#000000">slug: UUID</text>
<polygon fill="none" stroke="#000000" points="587.5,-99 587.5,-121 670.5,-121 670.5,-99 587.5,-99"/>
<text text-anchor="start" x="592.5" y="-107" font-family="Times,serif" font-size="10.00" fill="#000000">name: STRING</text>
<polygon fill="none" stroke="#000000" points="587.5,-77 587.5,-99 670.5,-99 670.5,-77 587.5,-77"/>
<text text-anchor="start" x="592.5" y="-85" font-family="Times,serif" font-size="10.00" fill="#000000">createdAt: DATE</text>
<polygon fill="none" stroke="#000000" points="587.5,-55 587.5,-77 670.5,-77 670.5,-55 587.5,-55"/>
<text text-anchor="start" x="592.205" y="-63" font-family="Times,serif" font-size="10.00" fill="#000000">updatedAt: DATE</text>
</g>
<!-- shift&#45;&gt;job -->
<g id="edge1" class="edge">
<title>shift&#45;&gt;job</title>
<path fill="none" stroke="#000000" stroke-width=".75" d="M384.3665,-121C440.6361,-121 533.1169,-121 586.6441,-121"/>
<polygon fill="#000000" stroke="#000000" stroke-width=".75" points="384.0264,-121.0001 378.0264,-118.3 381.0264,-121 378.0264,-121 378.0264,-121 378.0264,-121 381.0264,-121 378.0263,-123.7 384.0264,-121.0001 384.0264,-121.0001"/>
</g>
<!-- user -->
<g id="node3" class="node">
<title>user</title>
<polygon fill="#add8e6" stroke="transparent" points=".5,-220 .5,-242 89.5,-242 89.5,-220 .5,-220"/>
<polygon fill="none" stroke="#000000" points=".5,-220 .5,-242 89.5,-242 89.5,-220 .5,-220"/>
<text text-anchor="start" x="36.6715" y="-229" font-family="Times,serif" font-weight="bold" font-size="10.00" fill="#000000">user</text>
<polygon fill="none" stroke="#000000" points=".5,-198 .5,-220 89.5,-220 89.5,-198 .5,-198"/>
<text text-anchor="start" x="5.5" y="-207" font-family="Times,serif" text-decoration="underline" font-size="10.00" fill="#000000">id</text>
<text text-anchor="start" x="13.279" y="-207" font-family="Times,serif" font-size="10.00" fill="#000000">: NUMBER</text>
<polygon fill="none" stroke="#000000" points=".5,-176 .5,-198 89.5,-198 89.5,-176 .5,-176"/>
<text text-anchor="start" x="5.5" y="-184" font-family="Times,serif" font-size="10.00" fill="#000000">surname: STRING</text>
<polygon fill="none" stroke="#000000" points=".5,-154 .5,-176 89.5,-176 89.5,-154 .5,-154"/>
<text text-anchor="start" x="5.5" y="-162" font-family="Times,serif" font-size="10.00" fill="#000000">lastname: STRING</text>
<polygon fill="none" stroke="#000000" points=".5,-132 .5,-154 89.5,-154 89.5,-132 .5,-132"/>
<text text-anchor="start" x="5.426" y="-140" font-family="Times,serif" font-size="10.00" fill="#000000">password: STRING</text>
<polygon fill="none" stroke="#000000" points=".5,-110 .5,-132 89.5,-132 89.5,-110 .5,-110"/>
<text text-anchor="start" x="5.5" y="-118" font-family="Times,serif" font-size="10.00" fill="#000000">email: STRING</text>
<polygon fill="none" stroke="#000000" points=".5,-88 .5,-110 89.5,-110 89.5,-88 .5,-88"/>
<text text-anchor="start" x="5.5" y="-96" font-family="Times,serif" font-size="10.00" fill="#000000">phone: STRING</text>
<polygon fill="none" stroke="#000000" points=".5,-66 .5,-88 89.5,-88 89.5,-66 .5,-66"/>
<text text-anchor="start" x="5.5" y="-74" font-family="Times,serif" font-size="10.00" fill="#000000">role: STRING</text>
<polygon fill="none" stroke="#000000" points=".5,-44 .5,-66 89.5,-66 89.5,-44 .5,-44"/>
<text text-anchor="start" x="5.5" y="-52" font-family="Times,serif" font-size="10.00" fill="#000000">type: STRING</text>
<polygon fill="none" stroke="#000000" points=".5,-22 .5,-44 89.5,-44 89.5,-22 .5,-22"/>
<text text-anchor="start" x="5.5" y="-30" font-family="Times,serif" font-size="10.00" fill="#000000">createdAt: DATE</text>
<polygon fill="none" stroke="#000000" points=".5,0 .5,-22 89.5,-22 89.5,0 .5,0"/>
<text text-anchor="start" x="5.5" y="-8" font-family="Times,serif" font-size="10.00" fill="#000000">updatedAt: DATE</text>
</g>
<!-- shift&#45;&gt;user -->
<g id="edge2" class="edge">
<title>shift&#45;&gt;user</title>
<path fill="none" stroke="#000000" stroke-width=".75" d="M288.7443,-121C233.4807,-121 143.1821,-121 89.2348,-121"/>
<polygon fill="#000000" stroke="#000000" stroke-width=".75" points="288.9736,-121.0001 294.9737,-123.7 291.9736,-121 294.9736,-121 294.9736,-121 294.9736,-121 291.9736,-121 294.9736,-118.3 288.9736,-121.0001 288.9736,-121.0001"/>
</g>
</g>
</svg>
