<?xml version="1.0" encoding="UTF-8" standalone="no"?>
<!DOCTYPE svg PUBLIC "-//W3C//DTD SVG 1.1//EN"
 "http://www.w3.org/Graphics/SVG/1.1/DTD/svg11.dtd">
<!-- Generated by graphviz version 2.40.1 (20161225.0304)
 -->
<!-- Title: models_diagram Pages: 1 -->
<svg width="574pt" height="512pt"
 viewBox="0.00 0.00 574.00 512.00" xmlns="http://www.w3.org/2000/svg" xmlns:xlink="http://www.w3.org/1999/xlink">
<g id="graph0" class="graph" transform="scale(1 1) rotate(0) translate(36 476)">
<title>models_diagram</title>
<polygon fill="#ffffff" stroke="transparent" points="-36,36 -36,-476 538,-476 538,36 -36,36"/>
<!-- shift -->
<g id="node1" class="node">
<title>shift</title>
<polygon fill="#add8e6" stroke="transparent" points="0,-220 0,-242 108,-242 108,-220 0,-220"/>
<polygon fill="none" stroke="#000000" points="0,-220 0,-242 108,-242 108,-220 0,-220"/>
<text text-anchor="start" x="45.112" y="-229" font-family="Times,serif" font-weight="bold" font-size="10.00" fill="#000000">shift</text>
<polygon fill="none" stroke="#000000" points="0,-198 0,-220 108,-220 108,-198 0,-198"/>
<text text-anchor="start" x="5" y="-207" font-family="Times,serif" text-decoration="underline" font-size="10.00" fill="#000000">id</text>
<text text-anchor="start" x="12.779" y="-207" font-family="Times,serif" font-size="10.00" fill="#000000">: NUMBER</text>
<polygon fill="none" stroke="#000000" points="0,-176 0,-198 108,-198 108,-176 0,-176"/>
<text text-anchor="start" x="5" y="-184" font-family="Times,serif" font-size="10.00" fill="#000000">name: TEXT</text>
<polygon fill="none" stroke="#000000" points="0,-154 0,-176 108,-176 108,-154 0,-154"/>
<text text-anchor="start" x="5" y="-162" font-family="Times,serif" font-size="10.00" fill="#000000">start: NUMBER</text>
<polygon fill="none" stroke="#000000" points="0,-132 0,-154 108,-154 108,-132 0,-132"/>
<text text-anchor="start" x="5" y="-140" font-family="Times,serif" font-size="10.00" fill="#000000">end: NUMBER</text>
<polygon fill="none" stroke="#000000" points="0,-110 0,-132 108,-132 108,-110 0,-110"/>
<text text-anchor="start" x="5" y="-118" font-family="Times,serif" font-size="10.00" fill="#000000">color: STRING</text>
<polygon fill="none" stroke="#000000" points="0,-88 0,-110 108,-110 108,-88 0,-88"/>
<text text-anchor="start" x="5" y="-96" font-family="Times,serif" font-size="10.00" fill="#000000">type: STRING</text>
<polygon fill="none" stroke="#000000" points="0,-66 0,-88 108,-88 108,-66 0,-66"/>
<text text-anchor="start" x="4.7075" y="-74" font-family="Times,serif" font-size="10.00" fill="#000000">amountHelper: STRING</text>
<polygon fill="none" stroke="#000000" points="0,-44 0,-66 108,-66 108,-44 0,-44"/>
<text text-anchor="start" x="5" y="-52" font-family="Times,serif" font-size="10.00" fill="#000000">createdAt: DATE</text>
<polygon fill="none" stroke="#000000" points="0,-22 0,-44 108,-44 108,-22 0,-22"/>
<text text-anchor="start" x="5" y="-30" font-family="Times,serif" font-size="10.00" fill="#000000">updatedAt: DATE</text>
<polygon fill="none" stroke="#000000" points="0,0 0,-22 108,-22 108,0 0,0"/>
<text text-anchor="start" x="5" y="-9" font-family="Times,serif" font-style="italic" text-decoration="underline" font-size="10.00" fill="#000000">location_id</text>
<text text-anchor="start" x="49.994" y="-9" font-family="Times,serif" font-size="10.00" fill="#000000">: NUMBER</text>
</g>
<!-- location -->
<g id="node2" class="node">
<title>location</title>
<polygon fill="#add8e6" stroke="transparent" points="272,-165 272,-187 355,-187 355,-165 272,-165"/>
<polygon fill="none" stroke="#000000" points="272,-165 272,-187 355,-187 355,-165 272,-165"/>
<text text-anchor="start" x="297.3925" y="-174" font-family="Times,serif" font-weight="bold" font-size="10.00" fill="#000000">location</text>
<polygon fill="none" stroke="#000000" points="272,-143 272,-165 355,-165 355,-143 272,-143"/>
<text text-anchor="start" x="277" y="-152" font-family="Times,serif" text-decoration="underline" font-size="10.00" fill="#000000">id</text>
<text text-anchor="start" x="284.779" y="-152" font-family="Times,serif" font-size="10.00" fill="#000000">: NUMBER</text>
<polygon fill="none" stroke="#000000" points="272,-121 272,-143 355,-143 355,-121 272,-121"/>
<text text-anchor="start" x="277" y="-129" font-family="Times,serif" font-size="10.00" fill="#000000">slug: UUID</text>
<polygon fill="none" stroke="#000000" points="272,-99 272,-121 355,-121 355,-99 272,-99"/>
<text text-anchor="start" x="277" y="-107" font-family="Times,serif" font-size="10.00" fill="#000000">name: STRING</text>
<polygon fill="none" stroke="#000000" points="272,-77 272,-99 355,-99 355,-77 272,-77"/>
<text text-anchor="start" x="277" y="-85" font-family="Times,serif" font-size="10.00" fill="#000000">createdAt: DATE</text>
<polygon fill="none" stroke="#000000" points="272,-55 272,-77 355,-77 355,-55 272,-55"/>
<text text-anchor="start" x="276.705" y="-63" font-family="Times,serif" font-size="10.00" fill="#000000">updatedAt: DATE</text>
</g>
<!-- location&#45;&gt;shift -->
<g id="edge2" class="edge">
<title>location&#45;&gt;shift</title>
<path fill="none" stroke="#000000" stroke-width=".75" d="M271.3872,-121C228.877,-121 162.4433,-121 114.1996,-121"/>
<polygon fill="#000000" stroke="#000000" stroke-width=".75" points="114.1126,-121.0001 108.1126,-118.3 111.1126,-121 108.1126,-121 108.1126,-121 108.1126,-121 111.1126,-121 108.1125,-123.7 114.1126,-121.0001 114.1126,-121.0001"/>
</g>
<!-- user -->
<g id="node3" class="node">
<title>user</title>
<polygon fill="#add8e6" stroke="transparent" points="166,-418 166,-440 255,-440 255,-418 166,-418"/>
<polygon fill="none" stroke="#000000" points="166,-418 166,-440 255,-440 255,-418 166,-418"/>
<text text-anchor="start" x="202.1715" y="-427" font-family="Times,serif" font-weight="bold" font-size="10.00" fill="#000000">user</text>
<polygon fill="none" stroke="#000000" points="166,-396 166,-418 255,-418 255,-396 166,-396"/>
<text text-anchor="start" x="171" y="-405" font-family="Times,serif" text-decoration="underline" font-size="10.00" fill="#000000">id</text>
<text text-anchor="start" x="178.779" y="-405" font-family="Times,serif" font-size="10.00" fill="#000000">: NUMBER</text>
<polygon fill="none" stroke="#000000" points="166,-374 166,-396 255,-396 255,-374 166,-374"/>
<text text-anchor="start" x="171" y="-382" font-family="Times,serif" font-size="10.00" fill="#000000">surname: STRING</text>
<polygon fill="none" stroke="#000000" points="166,-352 166,-374 255,-374 255,-352 166,-352"/>
<text text-anchor="start" x="171" y="-360" font-family="Times,serif" font-size="10.00" fill="#000000">lastname: STRING</text>
<polygon fill="none" stroke="#000000" points="166,-330 166,-352 255,-352 255,-330 166,-330"/>
<text text-anchor="start" x="170.926" y="-338" font-family="Times,serif" font-size="10.00" fill="#000000">password: STRING</text>
<polygon fill="none" stroke="#000000" points="166,-308 166,-330 255,-330 255,-308 166,-308"/>
<text text-anchor="start" x="171" y="-316" font-family="Times,serif" font-size="10.00" fill="#000000">email: STRING</text>
<polygon fill="none" stroke="#000000" points="166,-286 166,-308 255,-308 255,-286 166,-286"/>
<text text-anchor="start" x="171" y="-294" font-family="Times,serif" font-size="10.00" fill="#000000">phone: STRING</text>
<polygon fill="none" stroke="#000000" points="166,-264 166,-286 255,-286 255,-264 166,-264"/>
<text text-anchor="start" x="171" y="-272" font-family="Times,serif" font-size="10.00" fill="#000000">role: STRING</text>
<polygon fill="none" stroke="#000000" points="166,-242 166,-264 255,-264 255,-242 166,-242"/>
<text text-anchor="start" x="171" y="-250" font-family="Times,serif" font-size="10.00" fill="#000000">crew: STRING</text>
<polygon fill="none" stroke="#000000" points="166,-220 166,-242 255,-242 255,-220 166,-220"/>
<text text-anchor="start" x="171" y="-228" font-family="Times,serif" font-size="10.00" fill="#000000">createdAt: DATE</text>
<polygon fill="none" stroke="#000000" points="166,-198 166,-220 255,-220 255,-198 166,-198"/>
<text text-anchor="start" x="171" y="-206" font-family="Times,serif" font-size="10.00" fill="#000000">updatedAt: DATE</text>
</g>
<!-- shift_user -->
<g id="node4" class="node">
<title>shift_user</title>
<polygon fill="#add8e6" stroke="transparent" points="414,-352 414,-374 502,-374 502,-352 414,-352"/>
<polygon fill="none" stroke="#000000" points="414,-352 414,-374 502,-374 502,-352 414,-352"/>
<text text-anchor="start" x="438.2835" y="-361" font-family="Times,serif" font-weight="bold" font-size="10.00" fill="#000000">shift_user</text>
<polygon fill="none" stroke="#000000" points="414,-330 414,-352 502,-352 502,-330 414,-330"/>
<text text-anchor="start" x="419" y="-338" font-family="Times,serif" font-size="10.00" fill="#000000">createdAt: DATE</text>
<polygon fill="none" stroke="#000000" points="414,-308 414,-330 502,-330 502,-308 414,-308"/>
<text text-anchor="start" x="419" y="-316" font-family="Times,serif" font-size="10.00" fill="#000000">updatedAt: DATE</text>
<polygon fill="none" stroke="#000000" points="414,-286 414,-308 502,-308 502,-286 414,-286"/>
<text text-anchor="start" x="419" y="-295" font-family="Times,serif" text-decoration="underline" font-size="10.00" fill="#000000">user_id</text>
<text text-anchor="start" x="448.436" y="-295" font-family="Times,serif" font-size="10.00" fill="#000000">: NUMBER</text>
<polygon fill="none" stroke="#000000" points="414,-264 414,-286 502,-286 502,-264 414,-264"/>
<text text-anchor="start" x="418.696" y="-273" font-family="Times,serif" text-decoration="underline" font-size="10.00" fill="#000000">shift_id</text>
<text text-anchor="start" x="449.251" y="-273" font-family="Times,serif" font-size="10.00" fill="#000000">: NUMBER</text>
</g>
<!-- user&#45;&gt;shift_user -->
<g id="edge1" class="edge">
<title>user&#45;&gt;shift_user</title>
<path fill="none" stroke="#000000" stroke-width=".75" d="M254.6239,-319C297.6442,-319 362.655,-319 407.5392,-319"/>
<polygon fill="#000000" stroke="#000000" stroke-width=".75" points="407.7346,-319.0001 413.7347,-321.7 410.7346,-319 413.7346,-319 413.7346,-319 413.7346,-319 410.7346,-319 413.7346,-316.3 407.7346,-319.0001 407.7346,-319.0001"/>
</g>
</g>
</svg>
